<svg xmlns="http://www.w3.org/2000/svg" xmlns:xlink="http://www.w3.org/1999/xlink" xmlns:lucid="lucid" width="1500.68" height="832.88"><g transform="translate(-521.6978976343588 -1149.7694918359462)" lucid:page-tab-id="jo0m43AC-lbm"><path d="M500 1000h2000v1000H500z" fill="#fff"/><g filter="url(#a)"><path d="M845.33 1156.77a6 6 0 0 1 6-6h938.16a6 6 0 0 1 6 6v713.13a6 6 0 0 1-6 6H851.32a6 6 0 0 1-6-6z" stroke="#3a414a" stroke-width="2" fill="#fff"/><use xlink:href="#b" transform="matrix(1,0,0,1,850.3333333332944,1155.7694918359462) translate(0 25.833333333333336)"/><use xlink:href="#c" transform="matrix(1,0,0,1,850.3333333332944,1155.7694918359462) translate(78.63281250000001 25.833333333333336)"/><use xlink:href="#d" transform="matrix(1,0,0,1,850.3333333332944,1155.7694918359462) translate(119.85677083333334 25.833333333333336)"/><use xlink:href="#e" transform="matrix(1,0,0,1,850.3333333332944,1155.7694918359462) translate(0 64.55208333333334)"/></g><g filter="url(#f)"><path d="M863.82 1215.9a6 6 0 0 1 6-6H1771a6 6 0 0 1 6 6v625.98a6 6 0 0 1-6 6H869.82a6 6 0 0 1-6-6z" stroke="#3a414a" stroke-width="2" fill="#f2f3f5"/><use xlink:href="#g" transform="matrix(1,0,0,1,875.8221428478187,1221.9140624999982) translate(0 21.52777777777778)"/><use xlink:href="#h" transform="matrix(1,0,0,1,875.8221428478187,1221.9140624999982) translate(0 49.48784722222222)"/><use xlink:href="#i" transform="matrix(1,0,0,1,875.8221428478187,1221.9140624999982) translate(108.75868055555554 49.48784722222222)"/><use xlink:href="#j" transform="matrix(1,0,0,1,875.8221428478187,1221.9140624999982) translate(171.98784722222223 49.48784722222222)"/><use xlink:href="#k" transform="matrix(1,0,0,1,875.8221428478187,1221.9140624999982) translate(241.35416666666669 49.48784722222222)"/><use xlink:href="#l" transform="matrix(1,0,0,1,875.8221428478187,1221.9140624999982) translate(257.80381944444446 49.48784722222222)"/></g><path d="M898.67 1346a6 6 0 0 1 6-6h382.66a6 6 0 0 1 6 6v334.67a6 6 0 0 1-6 6H904.67a6 6 0 0 1-6-6z" fill="#edf5ff"/><path d="M916.63 1340h7.97m7.97 0h7.97m7.97 0h8m7.96 0h7.97m7.97 0h7.98m7.97 0h7.97m7.97 0h7.96m7.98 0h7.97m7.98 0h7.97m7.97 0h7.98m7.97 0h7.97m7.97 0h8m7.96 0h7.97m7.97 0h7.97m7.98 0h7.97m7.97 0h7.96m7.98 0h7.97m7.98 0h7.97m7.97 0h7.98m7.97 0h7.97m7.97 0h8m7.96 0h7.97m7.97 0h7.97m7.98 0h3.98a6 6 0 0 1 6 6v3.98m0 7.97v7.97m0 7.97v7.96m0 7.97v7.96m0 7.96v7.97m0 7.97v7.97m0 7.96v7.97m0 7.97v7.97m0 7.97v7.98m0 7.96v7.97m0 7.98v7.97m0 7.97v7.97m0 7.95v7.97m0 7.97v7.96m0 7.97v7.96m0 7.96v7.97m0 7.97v7.97m0 7.97v7.96m0 7.97v7.97m0 7.97v7.98m0 7.97v7.96m0 7.98v4a6 6 0 0 1-6 6h-3.98m-7.97 0h-7.98m-7.97 0h-7.97m-7.97 0h-8m-7.96 0h-7.97m-7.97 0h-7.97m-7.98 0h-7.97m-7.97 0h-7.96m-7.98 0h-7.97m-7.98 0h-7.97m-7.97 0h-7.98m-7.97 0h-7.97m-7.97 0h-8m-7.96 0h-7.97m-7.97 0h-7.97m-7.98 0h-7.97m-7.97 0h-7.96m-7.98 0h-7.97m-7.98 0h-7.97m-7.98 0h-7.97m-7.97 0h-7.97m-7.97 0h-8m-7.96 0h-7.97m-7.97 0h-7.98m-7.97 0h-3.98a6 6 0 0 1-6-6v-4m0-7.97v-7.95m0-7.97v-7.97m0-7.96v-7.97m0-7.96v-7.96m0-7.97V1597m0-7.97v-7.97m0-7.96v-7.97m0-7.97v-7.97m0-7.98v-7.97m0-7.96v-7.98m0-7.97v-7.97m0-7.97v-7.96m0-7.96v-7.97m0-7.96v-7.97m0-7.97v-7.96m0-7.97v-7.97m0-7.97v-7.97m0-7.97v-7.97m0-7.97v-7.97m0-7.98v-7.97m0-7.97V1346a6 6 0 0 1 6-6h3.98" stroke="#3a414a" stroke-width="2" fill="none"/><use xlink:href="#m" transform="matrix(1,0,0,1,910.6666666666667,1352.0000000000002) translate(0 21.52777777777778)"/><use xlink:href="#n" transform="matrix(1,0,0,1,910.6666666666667,1352.0000000000002) translate(158.7022569444444 21.52777777777778)"/><use xlink:href="#o" transform="matrix(1,0,0,1,910.6666666666667,1352.0000000000002) translate(233.59374999999994 21.52777777777778)"/><use xlink:href="#p" transform="matrix(1,0,0,1,910.6666666666667,1352.0000000000002) translate(0 49.48784722222222)"/><use xlink:href="#j" transform="matrix(1,0,0,1,910.6666666666667,1352.0000000000002) translate(101.17187499999999 49.48784722222222)"/><use xlink:href="#k" transform="matrix(1,0,0,1,910.6666666666667,1352.0000000000002) translate(170.53819444444446 49.48784722222222)"/><use xlink:href="#l" transform="matrix(1,0,0,1,910.6666666666667,1352.0000000000002) translate(186.98784722222223 49.48784722222222)"/><g filter="url(#q)"><path d="M917.33 1449.33a6 6 0 0 1 6-6h339.85a6 6 0 0 1 6 6v70a6 6 0 0 1-6 6H923.33a6 6 0 0 1-6-6z" stroke="#1071e5" stroke-width="2" fill="#1071e5"/><use xlink:href="#r" transform="matrix(1,0,0,1,929.3333333333329,1455.3333333333337) translate(0 25.21527777777778)"/><use xlink:href="#s" transform="matrix(1,0,0,1,929.3333333333329,1455.3333333333337) translate(92.04644097222221 25.21527777777778)"/><use xlink:href="#t" transform="matrix(1,0,0,1,929.3333333333329,1455.3333333333337) translate(166.93793402777777 25.21527777777778)"/><use xlink:href="#u" transform="matrix(1,0,0,1,929.3333333333329,1455.3333333333337) translate(188.79123263888889 25.21527777777778)"/><use xlink:href="#v" transform="matrix(1,0,0,1,929.3333333333329,1455.3333333333337) translate(216.66666666666666 25.21527777777778)"/><use xlink:href="#w" transform="matrix(1,0,0,1,929.3333333333329,1455.3333333333337) translate(0 53.17534722222222)"/><use xlink:href="#x" transform="matrix(1,0,0,1,929.3333333333329,1455.3333333333337) translate(117.73437499999999 53.17534722222222)"/><use xlink:href="#y" transform="matrix(1,0,0,1,929.3333333333329,1455.3333333333337) translate(164.74826388888889 53.17534722222222)"/><use xlink:href="#z" transform="matrix(1,0,0,1,929.3333333333329,1455.3333333333337) translate(234.11458333333334 53.17534722222222)"/><use xlink:href="#A" transform="matrix(1,0,0,1,929.3333333333329,1455.3333333333337) translate(250.56423611111111 53.17534722222222)"/></g><g filter="url(#q)"><path d="M923.3 1586.33a6 6 0 0 1 6-6h339.84a6 6 0 0 1 6 6v70a6 6 0 0 1-6 6H929.3a6 6 0 0 1-6-6z" stroke="#1071e5" stroke-width="2" fill="#1071e5"/><use xlink:href="#r" transform="matrix(1,0,0,1,935.2937053478187,1592.3333333333146) translate(0 25.21527777777778)"/><use xlink:href="#s" transform="matrix(1,0,0,1,935.2937053478187,1592.3333333333146) translate(92.04644097222221 25.21527777777778)"/><use xlink:href="#B" transform="matrix(1,0,0,1,935.2937053478187,1592.3333333333146) translate(166.93793402777777 25.21527777777778)"/><use xlink:href="#C" transform="matrix(1,0,0,1,935.2937053478187,1592.3333333333146) translate(186.90321180555554 25.21527777777778)"/><use xlink:href="#v" transform="matrix(1,0,0,1,935.2937053478187,1592.3333333333146) translate(221.22395833333331 25.21527777777778)"/><use xlink:href="#w" transform="matrix(1,0,0,1,935.2937053478187,1592.3333333333146) translate(0 53.17534722222222)"/><use xlink:href="#x" transform="matrix(1,0,0,1,935.2937053478187,1592.3333333333146) translate(117.73437499999999 53.17534722222222)"/><use xlink:href="#y" transform="matrix(1,0,0,1,935.2937053478187,1592.3333333333146) translate(164.74826388888889 53.17534722222222)"/><use xlink:href="#z" transform="matrix(1,0,0,1,935.2937053478187,1592.3333333333146) translate(234.11458333333334 53.17534722222222)"/><use xlink:href="#A" transform="matrix(1,0,0,1,935.2937053478187,1592.3333333333146) translate(250.56423611111111 53.17534722222222)"/></g><path d="M1071.14 1531.33a6 6 0 0 1 6-6h21.05a6 6 0 0 1 6 6v30.28a6 6 0 0 1-6 6h-21.06a6 6 0 0 1-6-6z" fill="none"/><use xlink:href="#D" transform="matrix(1,0,0,1,1076.1382291666664,1530.333333333373) translate(0 26.200520833333336)"/><path d="M1309.97 1489.06a6 6 0 0 1 6-6h21.06a6 6 0 0 1 6 6v30.27a6 6 0 0 1-6 6h-21.06a6 6 0 0 1-6-6z" fill="none"/><use xlink:href="#D" transform="matrix(1,0,0,1,1314.9715624999997,1488.057708333373) translate(0 26.200520833333336)"/><g filter="url(#E)"><path d="M902.2 1745.44a6 6 0 0 1 6-6h840.13a6 6 0 0 1 6 6v62.23a6 6 0 0 1-6 6H908.2a6 6 0 0 1-6-6z" stroke="#dfe3e8" stroke-width="2" fill="#dfe3e8"/><use xlink:href="#F" transform="matrix(1,0,0,1,914.2123511811524,1751.4422756557628) translate(0 20.40972222222222)"/><use xlink:href="#G" transform="matrix(1,0,0,1,914.2123511811524,1751.4422756557628) translate(70.77256944444446 20.40972222222222)"/><use xlink:href="#H" transform="matrix(1,0,0,1,914.2123511811524,1751.4422756557628) translate(163.00347222222223 20.40972222222222)"/><use xlink:href="#I" transform="matrix(1,0,0,1,914.2123511811524,1751.4422756557628) translate(232.66493055555554 20.40972222222222)"/><use xlink:href="#J" transform="matrix(1,0,0,1,914.2123511811524,1751.4422756557628) translate(0 46.222222222222214)"/><use xlink:href="#K" transform="matrix(1,0,0,1,914.2123511811524,1751.4422756557628) translate(12.230902777777779 46.222222222222214)"/><use xlink:href="#L" transform="matrix(1,0,0,1,914.2123511811524,1751.4422756557628) translate(45.173611111111114 46.222222222222214)"/><use xlink:href="#M" transform="matrix(1,0,0,1,914.2123511811524,1751.4422756557628) translate(105.12152777777779 46.222222222222214)"/><use xlink:href="#N" transform="matrix(1,0,0,1,914.2123511811524,1751.4422756557628) translate(168.37673611111111 46.222222222222214)"/><use xlink:href="#O" transform="matrix(1,0,0,1,914.2123511811524,1751.4422756557628) translate(220.02604166666669 46.222222222222214)"/><use xlink:href="#P" transform="matrix(1,0,0,1,914.2123511811524,1751.4422756557628) translate(356.3888888888889 46.222222222222214)"/><use xlink:href="#Q" transform="matrix(1,0,0,1,914.2123511811524,1751.4422756557628) translate(414.4965277777778 46.222222222222214)"/><use xlink:href="#R" transform="matrix(1,0,0,1,914.2123511811524,1751.4422756557628) translate(483.38541666666674 46.222222222222214)"/><use xlink:href="#S" transform="matrix(1,0,0,1,914.2123511811524,1751.4422756557628) translate(504.1840277777778 46.222222222222214)"/><use xlink:href="#T" transform="matrix(1,0,0,1,914.2123511811524,1751.4422756557628) translate(535.8767361111112 46.222222222222214)"/></g><path d="M1557 1688.17l.4 33.9" stroke="#3a414a" fill="none"/><path d="M1557.48 1688.17h-.95v-.5h.94z" stroke="#3a414a" stroke-width=".05" fill="#3a414a"/><path d="M1557.56 1736.82l-4.8-14.2 9.27-.1z" stroke="#3a414a" fill="#3a414a"/><path d="M1096 1688.17l-.4 33.9" stroke="#3a414a" fill="none"/><path d="M1096.47 1688.18h-.95v-.5h.95z" stroke="#3a414a" stroke-width=".05" fill="#3a414a"/><path d="M1095.43 1736.82l-4.47-14.3 9.27.1z" stroke="#3a414a" fill="#3a414a"/><path d="M1755.83 1776.56h57.34" stroke="#3a414a" fill="none"/><path d="M1755.85 1777.03h-.52v-.95h.52z" stroke="#3a414a" stroke-width=".05" fill="#3a414a"/><path d="M1827.94 1776.56l-14.27 4.63v-9.28z" stroke="#3a414a" fill="#3a414a"/><path d="M1829.56 1753.9a6 6 0 0 1 6-6h131.25a6 6 0 0 1 6 6v45.32a6 6 0 0 1-6 6h-131.24a6 6 0 0 1-6-6z" fill="none"/><use xlink:href="#U" transform="matrix(1,0,0,1,1834.5574683551913,1752.8896978723592) translate(0 17.560763888888893)"/><use xlink:href="#V" transform="matrix(1,0,0,1,1834.5574683551913,1752.8896978723592) translate(56.015625 17.560763888888893)"/><use xlink:href="#W" transform="matrix(1,0,0,1,1834.5574683551913,1752.8896978723592) translate(0 43.373263888888886)"/><use xlink:href="#X" transform="matrix(1,0,0,1,1834.5574683551913,1752.8896978723592) translate(115.42534722222223 43.373263888888886)"/><path d="M1833.63 1853.88a6 6 0 0 1 6-6h176.75a6 6 0 0 1 6 6v122.77a6 6 0 0 1-6 6h-176.75a6 6 0 0 1-6-6z" fill="none"/><use xlink:href="#Y" transform="matrix(1,0,0,1,1838.6329891885246,1852.883081428547) translate(0 17.3420138888889)"/><use xlink:href="#Z" transform="matrix(1,0,0,1,1838.6329891885246,1852.883081428547) translate(91.53645833333333 17.3420138888889)"/><use xlink:href="#aa" transform="matrix(1,0,0,1,1838.6329891885246,1852.883081428547) translate(0 43.1545138888889)"/><use xlink:href="#ab" transform="matrix(1,0,0,1,1838.6329891885246,1852.883081428547) translate(0 68.96701388888889)"/><use xlink:href="#ac" transform="matrix(1,0,0,1,1838.6329891885246,1852.883081428547) translate(0 94.77951388888889)"/><use xlink:href="#ad" transform="matrix(1,0,0,1,1838.6329891885246,1852.883081428547) translate(0 120.59201388888889)"/><path d="M1685.24 1815.17v94.1a6 6 0 0 0 6 6h126" stroke="#3a414a" fill="none"/><path d="M1685.72 1815.18h-.95v-.5h.95z" stroke="#3a414a" stroke-width=".05" fill="#3a414a"/><path d="M1832.02 1915.27l-14.27 4.63v-9.27z" stroke="#3a414a" fill="#3a414a"/><path d="M1359.67 1346a6 6 0 0 1 6-6h382.66a6 6 0 0 1 6 6v334.67a6 6 0 0 1-6 6h-382.66a6 6 0 0 1-6-6z" fill="#edf5ff"/><path d="M1377.63 1340h7.97m7.97 0h7.97m7.97 0h8m7.96 0h7.97m7.97 0h7.97m7.98 0h7.97m7.97 0h7.96m7.98 0h7.97m7.98 0h7.97m7.97 0h7.98m7.97 0h7.97m7.97 0h8m7.96 0h7.97m7.97 0h7.97m7.98 0h7.97m7.97 0h7.96m7.98 0h7.97m7.98 0h7.97m7.97 0h7.98m7.97 0h7.97m7.97 0h8m7.96 0h7.97m7.97 0h7.97m7.98 0h3.98a6 6 0 0 1 6 6v3.98m0 7.97v7.97m0 7.97v7.96m0 7.97v7.96m0 7.96v7.97m0 7.97v7.97m0 7.96v7.97m0 7.97v7.97m0 7.97v7.98m0 7.96v7.97m0 7.98v7.97m0 7.97v7.97m0 7.95v7.97m0 7.97v7.96m0 7.97v7.96m0 7.96v7.97m0 7.97v7.97m0 7.97v7.96m0 7.97v7.97m0 7.97v7.98m0 7.97v7.96m0 7.98v4a6 6 0 0 1-6 6h-3.98m-7.97 0h-7.98m-7.97 0h-7.97m-7.97 0h-8m-7.96 0h-7.97m-7.97 0h-7.97m-7.98 0h-7.97m-7.97 0h-7.96m-7.98 0h-7.97m-7.98 0h-7.97m-7.97 0h-7.98m-7.97 0h-7.97m-7.97 0h-8m-7.96 0h-7.97m-7.97 0h-7.97m-7.98 0h-7.97m-7.97 0h-7.96m-7.98 0h-7.97m-7.98 0h-7.97m-7.97 0h-7.98m-7.97 0h-7.97m-7.97 0h-8m-7.96 0h-7.97m-7.97 0h-7.97m-7.98 0h-3.98a6 6 0 0 1-6-6v-4m0-7.97v-7.95m0-7.97v-7.97m0-7.96v-7.97m0-7.96v-7.96m0-7.97V1597m0-7.97v-7.97m0-7.96v-7.97m0-7.97v-7.97m0-7.98v-7.97m0-7.96v-7.98m0-7.97v-7.97m0-7.97v-7.96m0-7.96v-7.97m0-7.96v-7.97m0-7.97v-7.96m0-7.97v-7.97m0-7.97v-7.97m0-7.97v-7.97m0-7.97v-7.97m0-7.98v-7.97m0-7.97V1346a6 6 0 0 1 6-6h3.98" stroke="#3a414a" stroke-width="2" fill="none"/><g><use xlink:href="#m" transform="matrix(1,0,0,1,1371.6666666666665,1352.0000000000002) translate(0 21.52777777777778)"/><use xlink:href="#n" transform="matrix(1,0,0,1,1371.6666666666665,1352.0000000000002) translate(158.7022569444444 21.52777777777778)"/><use xlink:href="#ae" transform="matrix(1,0,0,1,1371.6666666666665,1352.0000000000002) translate(233.59374999999994 21.52777777777778)"/><use xlink:href="#p" transform="matrix(1,0,0,1,1371.6666666666665,1352.0000000000002) translate(0 49.48784722222222)"/><use xlink:href="#j" transform="matrix(1,0,0,1,1371.6666666666665,1352.0000000000002) translate(101.17187499999999 49.48784722222222)"/><use xlink:href="#k" transform="matrix(1,0,0,1,1371.6666666666665,1352.0000000000002) translate(170.53819444444446 49.48784722222222)"/><use xlink:href="#l" transform="matrix(1,0,0,1,1371.6666666666665,1352.0000000000002) translate(186.98784722222223 49.48784722222222)"/></g><g filter="url(#q)"><path d="M1378.33 1449.33a6 6 0 0 1 6-6h339.85a6 6 0 0 1 6 6v70a6 6 0 0 1-6 6h-339.85a6 6 0 0 1-6-6z" stroke="#1071e5" stroke-width="2" fill="#1071e5"/><use xlink:href="#r" transform="matrix(1,0,0,1,1390.3333333333326,1455.3333333333337) translate(0 25.21527777777778)"/><use xlink:href="#s" transform="matrix(1,0,0,1,1390.3333333333326,1455.3333333333337) translate(92.04644097222221 25.21527777777778)"/><use xlink:href="#af" transform="matrix(1,0,0,1,1390.3333333333326,1455.3333333333337) translate(166.93793402777777 25.21527777777778)"/><use xlink:href="#ag" transform="matrix(1,0,0,1,1390.3333333333326,1455.3333333333337) translate(188.63932291666666 25.21527777777778)"/><use xlink:href="#v" transform="matrix(1,0,0,1,1390.3333333333326,1455.3333333333337) translate(216.68836805555554 25.21527777777778)"/><use xlink:href="#w" transform="matrix(1,0,0,1,1390.3333333333326,1455.3333333333337) translate(0 53.17534722222222)"/><use xlink:href="#x" transform="matrix(1,0,0,1,1390.3333333333326,1455.3333333333337) translate(117.73437499999999 53.17534722222222)"/><use xlink:href="#y" transform="matrix(1,0,0,1,1390.3333333333326,1455.3333333333337) translate(164.74826388888889 53.17534722222222)"/><use xlink:href="#z" transform="matrix(1,0,0,1,1390.3333333333326,1455.3333333333337) translate(234.11458333333334 53.17534722222222)"/><use xlink:href="#A" transform="matrix(1,0,0,1,1390.3333333333326,1455.3333333333337) translate(250.56423611111111 53.17534722222222)"/></g><path d="M1540.47 1535.53a6 6 0 0 1 6-6h21.06a6 6 0 0 1 6 6v30.27a6 6 0 0 1-6 6h-21.06a6 6 0 0 1-6-6z" fill="none"/><g><use xlink:href="#D" transform="matrix(1,0,0,1,1545.4715624999994,1534.528854166666) translate(0 26.200520833333336)"/></g><path d="M521.7 1330.97a6 6 0 0 1 6-6h288.07a6 6 0 0 1 6 6v376.15a6 6 0 0 1-6 6H527.7a6 6 0 0 1-6-6z" fill="none"/><path d="M821.77 1713.12c-5.52 0-10-4.47-10-10v-174.07c0-5.53-4.48-10-10-10 5.52 0 10-4.48 10-10v-174.08c0-5.52 4.48-10 10-10" stroke="#3a414a" stroke-width="2" fill="none"/><g><use xlink:href="#ah" transform="matrix(1,0,0,1,526.6978976343588,1329.9704010146115) translate(0 170.1545138888889)"/><use xlink:href="#ai" transform="matrix(1,0,0,1,526.6978976343588,1329.9704010146115) translate(92.23090277777777 170.1545138888889)"/><use xlink:href="#aj" transform="matrix(1,0,0,1,526.6978976343588,1329.9704010146115) translate(134.88715277777777 170.1545138888889)"/><use xlink:href="#ak" transform="matrix(1,0,0,1,526.6978976343588,1329.9704010146115) translate(0 195.9670138888889)"/><use xlink:href="#al" transform="matrix(1,0,0,1,526.6978976343588,1329.9704010146115) translate(151.08506944444446 195.9670138888889)"/><use xlink:href="#am" transform="matrix(1,0,0,1,526.6978976343588,1329.9704010146115) translate(202.72569444444446 195.9670138888889)"/><use xlink:href="#an" transform="matrix(1,0,0,1,526.6978976343588,1329.9704010146115) translate(0 221.7795138888889)"/></g><g filter="url(#ao)"><path d="M1359.67 1232.54a6 6 0 0 1 6-6h391.45a6 6 0 0 1 6 6v62.23a6 6 0 0 1-6 6h-391.45a6 6 0 0 1-6-6z" stroke="#dfe3e8" stroke-width="2" fill="#dfe3e8"/><use xlink:href="#ap" transform="matrix(1,0,0,1,1371.6666666666665,1238.540367095392) translate(0 20.40972222222222)"/><use xlink:href="#aq" transform="matrix(1,0,0,1,1371.6666666666665,1238.540367095392) translate(68.36805555555556 20.40972222222222)"/><use xlink:href="#ar" transform="matrix(1,0,0,1,1371.6666666666665,1238.540367095392) translate(0 46.222222222222214)"/><use xlink:href="#as" transform="matrix(1,0,0,1,1371.6666666666665,1238.540367095392) translate(71.3888888888889 46.222222222222214)"/><use xlink:href="#at" transform="matrix(1,0,0,1,1371.6666666666665,1238.540367095392) translate(145.703125 46.222222222222214)"/><use xlink:href="#au" transform="matrix(1,0,0,1,1371.6666666666665,1238.540367095392) translate(203.68923611111111 46.222222222222214)"/><use xlink:href="#av" transform="matrix(1,0,0,1,1371.6666666666665,1238.540367095392) translate(237.30902777777777 46.222222222222214)"/><use xlink:href="#aw" transform="matrix(1,0,0,1,1371.6666666666665,1238.540367095392) translate(312.17881944444446 46.222222222222214)"/></g><path d="M1893.97 1263.65H1780.5M1893.95 1263.65h.52" stroke="#3a414a" fill="none"/><path d="M1765.74 1263.65l14.26-4.63v9.27z" stroke="#3a414a" fill="#3a414a"/><g><use xlink:href="#ax" transform="matrix(1,0,0,1,1810.9130946919831,1238.143830978655) translate(0.005000000000002558 17.22222222222222)"/></g><defs><path fill="#3a414a" d="M789 20C394 20 94-260 94-744c0-487 300-766 695-766s695 279 695 766c0 485-300 764-695 764zm0-271c231 0 385-174 385-493 0-321-154-495-385-495s-385 175-385 495c0 319 154 493 385 493" id="ay"/><path fill="#3a414a" d="M75-1237v-253h1217v253H837V0H531v-1237H75" id="az"/><path fill="#3a414a" d="M49 0l509-1490h400L1480 0h-339l-115-346H497L386 0H49zm524-585h374c-75-213-124-402-192-666-66 268-110 453-182 666" id="aA"/><path fill="#3a414a" d="M135 0v-1490h581c339 0 533 210 533 503 0 295-197 500-540 500H440V0H135zm305-733h220c186 0 274-104 274-254s-88-251-275-251H440v505" id="aB"/><g id="b"><use transform="matrix(0.013020833333333334,0,0,0.013020833333333334,0,0)" xlink:href="#ay"/><use transform="matrix(0.013020833333333334,0,0,0.013020833333333334,19.700520833333332,0)" xlink:href="#az"/><use transform="matrix(0.013020833333333334,0,0,0.013020833333333334,35.13020833333333,0)" xlink:href="#aA"/><use transform="matrix(0.013020833333333334,0,0,0.013020833333333334,55.0390625,0)" xlink:href="#aB"/></g><path fill="#3a414a" d="M659 0H135v-1490h529c448 0 721 280 721 744 0 466-273 746-726 746zM440-263h204c287 0 437-148 437-483 0-333-150-481-435-481H440v964" id="aC"/><path fill="#3a414a" d="M135 0v-1490h980v253H440v416h609v249H440V0H135" id="aD"/><g id="c"><use transform="matrix(0.013020833333333334,0,0,0.013020833333333334,0,0)" xlink:href="#aC"/><use transform="matrix(0.013020833333333334,0,0,0.013020833333333334,19.2578125,0)" xlink:href="#aD"/></g><path fill="#3a414a" d="M135 0v-1490h997v253H440v360h640v249H440v375h694V0H135" id="aE"/><path fill="#3a414a" d="M428-647V0H128v-1118h283l4 231c63-156 176-245 348-245 232 0 384 159 384 421V0H847v-659c0-139-76-222-202-222-128 0-217 86-217 234" id="aF"/><path fill="#3a414a" d="M625 442c-280 0-454-114-503-274l258-72c28 63 97 128 243 128 153 0 246-69 246-216v-206h-23C805-108 717-16 536-16 284-16 81-191 81-561c0-378 208-571 456-571 188 0 280 113 321 202h13v-188h295V-9c0 303-226 451-541 451zm5-686c153 0 240-119 240-319 0-198-86-329-240-329-158 0-241 137-241 329 0 195 85 319 241 319" id="aG"/><path fill="#3a414a" d="M128 0v-1118h300V0H128zm150-1264c-91 0-165-68-165-154 0-85 74-154 165-154 90 0 165 69 165 154 0 86-75 154-165 154" id="aH"/><path fill="#3a414a" d="M633 22C291 22 81-200 81-553c0-345 210-579 537-579 292 0 525 185 525 567v84H378c7 183 109 277 260 277 105 0 184-46 216-132l272 51C1071-99 893 22 633 22zM380-669h474c-15-146-94-237-233-237-143 0-229 99-241 237" id="aI"/><g id="d"><use transform="matrix(0.013020833333333334,0,0,0.013020833333333334,0,0)" xlink:href="#aE"/><use transform="matrix(0.013020833333333334,0,0,0.013020833333333334,16.197916666666668,0)" xlink:href="#aF"/><use transform="matrix(0.013020833333333334,0,0,0.013020833333333334,32.79947916666667,0)" xlink:href="#aG"/><use transform="matrix(0.013020833333333334,0,0,0.013020833333333334,49.64843750000001,0)" xlink:href="#aH"/><use transform="matrix(0.013020833333333334,0,0,0.013020833333333334,56.875,0)" xlink:href="#aF"/><use transform="matrix(0.013020833333333334,0,0,0.013020833333333334,73.4765625,0)" xlink:href="#aI"/></g><filter id="a" filterUnits="objectBoundingBox" x="-.01" y="-.01" width="1.02" height="1.03"><feOffset result="offOut" in="SourceAlpha" dy="6"/><feGaussianBlur result="blurOut" in="offOut" stdDeviation="5"/><feColorMatrix result="colorOut" in="blurOut" values="0 0 0 0 0 0 0 0 0 0 0 0 0 0 0 0 0 0 0.5019607843137255 0"/><feBlend in="SourceGraphic" in2="colorOut"/></filter><path fill="#3a414a" d="M786 20C389 20 94-260 94-744c0-487 299-766 692-766 339 0 597 194 641 529h-309c-28-162-156-258-326-258-233 0-388 179-388 495 0 323 157 493 387 493 170 0 298-97 328-259h309c-34 277-266 530-642 530" id="aJ"/><path fill="#3a414a" d="M628 22C291 22 81-210 81-554c0-346 210-578 547-578 336 0 547 232 547 578 0 344-211 576-547 576zm0-236c160 0 242-146 242-341 0-197-82-341-242-341S387-753 387-555c0 195 81 341 241 341" id="aK"/><path fill="#3a414a" d="M683-1118v229H474v562c0 71 29 104 102 104 23 0 73-7 95-13l43 225C647 9 580 16 520 16 296 16 174-96 174-301v-588H20v-229h154v-266h300v266h209" id="aL"/><path fill="#3a414a" d="M128 0v-1118h290v195h12c54-169 184-238 367-200v268c-27-8-86-15-130-15-138 0-239 95-239 234V0H128" id="aM"/><path fill="#3a414a" d="M428-1490V0H128v-1490h300" id="aN"/><g id="g"><use transform="matrix(0.010850694444444444,0,0,0.010850694444444444,0,0)" xlink:href="#aJ"/><use transform="matrix(0.010850694444444444,0,0,0.010850694444444444,16.438802083333332,0)" xlink:href="#aK"/><use transform="matrix(0.010850694444444444,0,0,0.010850694444444444,30.067274305555554,0)" xlink:href="#aF"/><use transform="matrix(0.010850694444444444,0,0,0.010850694444444444,43.90190972222222,0)" xlink:href="#aL"/><use transform="matrix(0.010850694444444444,0,0,0.010850694444444444,52.03993055555556,0)" xlink:href="#aM"/><use transform="matrix(0.010850694444444444,0,0,0.010850694444444444,60.546875,0)" xlink:href="#aK"/><use transform="matrix(0.010850694444444444,0,0,0.010850694444444444,74.17534722222223,0)" xlink:href="#aN"/><use transform="matrix(0.010850694444444444,0,0,0.010850694444444444,80.1974826388889,0)" xlink:href="#aN"/><use transform="matrix(0.010850694444444444,0,0,0.010850694444444444,86.21961805555557,0)" xlink:href="#aI"/><use transform="matrix(0.010850694444444444,0,0,0.010850694444444444,99.4574652777778,0)" xlink:href="#aM"/></g><path fill="#3a414a" d="M628 24c-324 0-524-230-524-574 0-343 198-582 503-582 237 0 487 146 487 559v75H286c9 234 145 362 343 362 132 0 231-58 273-172l174 48C1024-91 857 24 628 24zM287-650h624c-17-190-120-322-304-322-192 0-309 151-320 322" id="aO"/><path fill="#3a414a" d="M338-670V0H158v-1118h173l1 207c72-158 192-221 342-221 226 0 378 139 378 422V0H872v-695c0-172-96-275-252-275-161 0-282 109-282 300" id="aP"/><path fill="#3a414a" d="M611 442c-248 0-391-105-460-228l146-94c47 65 117 165 314 165 178 0 307-82 307-266v-224h-17C863-141 792-18 576-18c-268 0-472-195-472-546 0-346 197-568 476-568 216 0 288 133 326 193h17v-179h175V29c0 289-215 413-487 413zm-5-620c203 0 314-146 314-390 0-237-108-403-314-403-213 0-319 180-319 403 0 230 109 390 319 390" id="aQ"/><path fill="#3a414a" d="M158 0v-1118h180V0H158zm91-1301c-68 0-125-53-125-119s57-119 125-119c69 0 126 53 126 119s-57 119-126 119" id="aR"/><path fill="#3a414a" d="M798-719v166H144v-166h654" id="aS"/><path fill="#3a414a" d="M338-1490V0H158v-1490h180" id="aT"/><path fill="#3a414a" d="M481 0L54-1118h197c107 314 236 620 325 951 87-331 217-637 324-951h197L670 0H481" id="aU"/><g id="h"><use transform="matrix(0.008680555555555556,0,0,0.008680555555555556,0,0)" xlink:href="#aO"/><use transform="matrix(0.008680555555555556,0,0,0.008680555555555556,10.364583333333334,0)" xlink:href="#aP"/><use transform="matrix(0.008680555555555556,0,0,0.008680555555555556,20.868055555555557,0)" xlink:href="#aQ"/><use transform="matrix(0.008680555555555556,0,0,0.008680555555555556,31.770833333333336,0)" xlink:href="#aR"/><use transform="matrix(0.008680555555555556,0,0,0.008680555555555556,36.07638888888889,0)" xlink:href="#aP"/><use transform="matrix(0.008680555555555556,0,0,0.008680555555555556,46.579861111111114,0)" xlink:href="#aO"/><use transform="matrix(0.008680555555555556,0,0,0.008680555555555556,56.94444444444445,0)" xlink:href="#aS"/><use transform="matrix(0.008680555555555556,0,0,0.008680555555555556,65.12152777777779,0)" xlink:href="#aT"/><use transform="matrix(0.008680555555555556,0,0,0.008680555555555556,69.42708333333334,0)" xlink:href="#aO"/><use transform="matrix(0.008680555555555556,0,0,0.008680555555555556,79.44444444444444,0)" xlink:href="#aU"/><use transform="matrix(0.008680555555555556,0,0,0.008680555555555556,89.08854166666666,0)" xlink:href="#aO"/><use transform="matrix(0.008680555555555556,0,0,0.008680555555555556,99.45312499999999,0)" xlink:href="#aT"/></g><path fill="#3a414a" d="M613 24c-304 0-509-231-509-576 0-350 205-580 509-580 216 0 392 114 453 309l-173 49c-33-115-133-197-280-197-223 0-326 196-326 419 0 220 103 415 326 415 150 0 252-85 285-206l172 49C1010-95 832 24 613 24" id="aV"/><path fill="#3a414a" d="M613 24c-304 0-509-231-509-576 0-350 205-580 509-580 305 0 511 230 511 580 0 345-206 576-511 576zm0-161c226 0 329-195 329-415 0-222-103-419-329-419-223 0-326 196-326 419 0 220 103 415 326 415" id="aW"/><path fill="#3a414a" d="M678-1118v154H420V0H240v-964H20v-154h220v-149c0-194 155-293 318-293 85 0 141 18 168 30l-50 154c-19-6-47-17-97-17-111 0-159 58-159 166v109h258" id="aX"/><path fill="#3a414a" d="M128 359l88-567h206L266 359H128" id="aY"/><g id="i"><use transform="matrix(0.008680555555555556,0,0,0.008680555555555556,0,0)" xlink:href="#aV"/><use transform="matrix(0.008680555555555556,0,0,0.008680555555555556,10.15625,0)" xlink:href="#aW"/><use transform="matrix(0.008680555555555556,0,0,0.008680555555555556,20.81597222222222,0)" xlink:href="#aP"/><use transform="matrix(0.008680555555555556,0,0,0.008680555555555556,31.319444444444443,0)" xlink:href="#aX"/><use transform="matrix(0.008680555555555556,0,0,0.008680555555555556,37.89930555555556,0)" xlink:href="#aR"/><use transform="matrix(0.008680555555555556,0,0,0.008680555555555556,42.204861111111114,0)" xlink:href="#aQ"/><use transform="matrix(0.008680555555555556,0,0,0.008680555555555556,53.10763888888889,0)" xlink:href="#aY"/></g><path fill="#3a414a" d="M158 418v-1536h174v179h20c37-59 106-193 324-193 279 0 474 222 474 576 0 356-194 580-473 580-213 0-288-135-325-197h-14v591H158zm492-555c209 0 317-186 317-421 0-232-105-413-317-413-206 0-314 166-314 413 0 249 111 421 314 421" id="aZ"/><path fill="#3a414a" d="M538 24C308 24 148-78 108-271l171-41c32 123 123 178 257 178 156 0 256-77 256-169 0-77-54-128-164-154l-186-44c-203-48-300-148-300-305 0-192 176-326 414-326 230 0 351 112 402 269l-163 42c-31-80-94-158-238-158-133 0-233 69-233 162 0 83 57 129 188 160l169 40c203 48 298 149 298 302 0 196-179 339-441 339" id="ba"/><g id="j"><use transform="matrix(0.008680555555555556,0,0,0.008680555555555556,0,0)" xlink:href="#aZ"/><use transform="matrix(0.008680555555555556,0,0,0.008680555555555556,10.885416666666668,0)" xlink:href="#aW"/><use transform="matrix(0.008680555555555556,0,0,0.008680555555555556,21.545138888888893,0)" xlink:href="#aT"/><use transform="matrix(0.008680555555555556,0,0,0.008680555555555556,25.85069444444445,0)" xlink:href="#aR"/><use transform="matrix(0.008680555555555556,0,0,0.008680555555555556,30.156250000000004,0)" xlink:href="#aV"/><use transform="matrix(0.008680555555555556,0,0,0.008680555555555556,40.31250000000001,0)" xlink:href="#aR"/><use transform="matrix(0.008680555555555556,0,0,0.008680555555555556,44.618055555555564,0)" xlink:href="#aO"/><use transform="matrix(0.008680555555555556,0,0,0.008680555555555556,54.9826388888889,0)" xlink:href="#ba"/></g><path fill="#3a414a" d="M580 20c-295 0-476-179-476-409 0-189 123-290 294-416-104-125-173-226-173-362 0-197 144-337 365-337 224 0 362 144 362 321 0 185-174 312-306 405l319 387c38-75 61-165 61-267h173c0 208-62 332-120 406L1287 0h-217L967-124C868-27 716 20 580 20zm279-273L507-675l-51 38c-123 91-167 162-167 254 0 147 113 246 278 246 107 0 210-41 292-116zM538-908l97-72c54-40 136-101 136-206 0-95-68-163-176-163-113 0-189 74-189 181 0 90 53 164 132 260" id="bb"/><use transform="matrix(0.008680555555555556,0,0,0.008680555555555556,0,0)" xlink:href="#bb" id="k"/><path fill="#3a414a" d="M677 24c-213 0-288-135-325-197h-20V0H158v-1490h180v551h14c37-59 106-193 324-193 279 0 474 222 474 576 0 356-194 580-473 580zm-27-161c209 0 317-186 317-421 0-232-105-413-317-413-206 0-314 166-314 413 0 249 111 421 314 421" id="bc"/><path fill="#3a414a" d="M537 14c-226 0-379-139-379-422v-710h180v695c0 172 97 275 253 275 160 0 281-109 281-300v-670h181V0H879v-209C806-46 684 14 537 14" id="bd"/><path fill="#3a414a" d="M577 24c-279 0-473-224-473-580 0-354 195-576 474-576 218 0 287 134 324 193h14v-551h180V0H922v-173h-20C865-111 790 24 577 24zm27-161c203 0 314-172 314-421 0-247-108-413-314-413-212 0-317 181-317 413 0 235 108 421 317 421" id="be"/><path fill="#3a414a" d="M598-1118v154H368v674c0 100 37 144 132 144 23 0 62-6 92-12L629-6c-37 13-88 20-134 20-193 0-307-107-307-290v-688H20v-154h168v-266h180v266h230" id="bf"/><g id="l"><use transform="matrix(0.008680555555555556,0,0,0.008680555555555556,0,0)" xlink:href="#bc"/><use transform="matrix(0.008680555555555556,0,0,0.008680555555555556,10.885416666666668,0)" xlink:href="#bd"/><use transform="matrix(0.008680555555555556,0,0,0.008680555555555556,21.397569444444446,0)" xlink:href="#be"/><use transform="matrix(0.008680555555555556,0,0,0.008680555555555556,32.282986111111114,0)" xlink:href="#aQ"/><use transform="matrix(0.008680555555555556,0,0,0.008680555555555556,43.18576388888889,0)" xlink:href="#aO"/><use transform="matrix(0.008680555555555556,0,0,0.008680555555555556,53.55034722222222,0)" xlink:href="#bf"/><use transform="matrix(0.008680555555555556,0,0,0.008680555555555556,59.192708333333336,0)" xlink:href="#ba"/></g><filter id="f" filterUnits="objectBoundingBox" x="-.01" y="-.01" width="1.02" height="1.03"><feOffset result="offOut" in="SourceAlpha" dy="6"/><feGaussianBlur result="blurOut" in="offOut" stdDeviation="5"/><feColorMatrix result="colorOut" in="blurOut" values="0 0 0 0 0 0 0 0 0 0 0 0 0 0 0 0 0 0 0.5019607843137255 0"/><feBlend in="SourceGraphic" in2="colorOut"/></filter><path fill="#3a414a" d="M128 418v-1536h295v188h14c41-89 129-202 319-202 248 0 453 193 453 575 0 372-197 576-455 576-183 0-275-108-317-198h-9v597H128zm534-640c156 0 240-139 240-336 0-196-83-334-240-334-154 0-241 131-241 334 0 202 88 336 241 336" id="bg"/><path fill="#3a414a" d="M795 20C377 20 94-272 94-743c0-483 302-767 694-767 335 0 593 206 635 500h-310c-42-142-154-229-320-229-230 0-389 177-389 493s154 495 393 495c212 0 340-120 345-311H818v-232h620v186c0 391-269 628-643 628" id="bh"/><path fill="#3a414a" d="M513 14c-232 0-385-159-385-421v-711h300v659c0 139 76 222 202 222 127 0 217-86 217-234v-647h301V0H864l-4-232C797-74 683 14 513 14" id="bi"/><g id="m"><use transform="matrix(0.010850694444444444,0,0,0.010850694444444444,0,0)" xlink:href="#aB"/><use transform="matrix(0.010850694444444444,0,0,0.010850694444444444,14.398871527777777,0)" xlink:href="#aH"/><use transform="matrix(0.010850694444444444,0,0,0.010850694444444444,20.421006944444443,0)" xlink:href="#bg"/><use transform="matrix(0.010850694444444444,0,0,0.010850694444444444,34.42925347222222,0)" xlink:href="#aI"/><use transform="matrix(0.010850694444444444,0,0,0.010850694444444444,47.66710069444444,0)" xlink:href="#aN"/><use transform="matrix(0.010850694444444444,0,0,0.010850694444444444,53.68923611111111,0)" xlink:href="#aH"/><use transform="matrix(0.010850694444444444,0,0,0.010850694444444444,59.71137152777778,0)" xlink:href="#aF"/><use transform="matrix(0.010850694444444444,0,0,0.010850694444444444,73.54600694444444,0)" xlink:href="#aI"/><use transform="matrix(0.010850694444444444,0,0,0.010850694444444444,86.78385416666666,0)" xlink:href="#bh"/><use transform="matrix(0.010850694444444444,0,0,0.010850694444444444,103.46137152777777,0)" xlink:href="#aM"/><use transform="matrix(0.010850694444444444,0,0,0.010850694444444444,111.96831597222221,0)" xlink:href="#aK"/><use transform="matrix(0.010850694444444444,0,0,0.010850694444444444,125.59678819444441,0)" xlink:href="#bi"/><use transform="matrix(0.010850694444444444,0,0,0.010850694444444444,139.4314236111111,0)" xlink:href="#bg"/></g><path fill="#3a414a" d="M628 22C291 22 81-210 81-554c0-346 210-578 547-578 265 0 455 142 497 372l-279 52c-25-116-99-188-215-188-160 0-244 139-244 341 0 200 84 341 244 341 116 0 193-74 217-195l279 51C1085-123 896 22 628 22" id="bj"/><path fill="#3a414a" d="M750-1118v229H516V0H217v-889H20v-229h197v-86c0-238 156-356 363-356 94 0 178 20 215 31l-54 226c-25-7-61-15-100-15-123-3-131 84-125 200h234" id="bk"/><g id="n"><use transform="matrix(0.010850694444444444,0,0,0.010850694444444444,0,0)" xlink:href="#bj"/><use transform="matrix(0.010850694444444444,0,0,0.010850694444444444,13.075086805555555,0)" xlink:href="#aK"/><use transform="matrix(0.010850694444444444,0,0,0.010850694444444444,26.70355902777778,0)" xlink:href="#aF"/><use transform="matrix(0.010850694444444444,0,0,0.010850694444444444,40.53819444444444,0)" xlink:href="#bk"/><use transform="matrix(0.010850694444444444,0,0,0.010850694444444444,49.56597222222222,0)" xlink:href="#aH"/><use transform="matrix(0.010850694444444444,0,0,0.010850694444444444,55.588107638888886,0)" xlink:href="#aG"/></g><path fill="#3a414a" d="M51 0l535-762-487-728h354c99 152 240 357 306 516 68-159 211-365 312-516h346L934-771 1461 0h-362C993-164 838-379 756-546 674-378 513-163 404 0H51" id="bl"/><use transform="matrix(0.010850694444444444,0,0,0.010850694444444444,0,0)" xlink:href="#bl" id="o"/><path fill="#3a414a" d="M158 0v-1118h174v172h12c41-113 157-188 290-188 26 0 70 2 91 3v181c-11-2-60-10-108-10-161 0-279 109-279 260V0H158" id="bm"/><g id="p"><use transform="matrix(0.008680555555555556,0,0,0.008680555555555556,0,0)" xlink:href="#aQ"/><use transform="matrix(0.008680555555555556,0,0,0.008680555555555556,10.902777777777779,0)" xlink:href="#bm"/><use transform="matrix(0.008680555555555556,0,0,0.008680555555555556,17.30034722222222,0)" xlink:href="#aW"/><use transform="matrix(0.008680555555555556,0,0,0.008680555555555556,27.960069444444443,0)" xlink:href="#bd"/><use transform="matrix(0.008680555555555556,0,0,0.008680555555555556,38.47222222222222,0)" xlink:href="#aZ"/><use transform="matrix(0.008680555555555556,0,0,0.008680555555555556,49.357638888888886,0)" xlink:href="#aS"/><use transform="matrix(0.008680555555555556,0,0,0.008680555555555556,57.53472222222222,0)" xlink:href="#aT"/><use transform="matrix(0.008680555555555556,0,0,0.008680555555555556,61.84027777777778,0)" xlink:href="#aO"/><use transform="matrix(0.008680555555555556,0,0,0.008680555555555556,71.85763888888889,0)" xlink:href="#aU"/><use transform="matrix(0.008680555555555556,0,0,0.008680555555555556,81.5017361111111,0)" xlink:href="#aO"/><use transform="matrix(0.008680555555555556,0,0,0.008680555555555556,91.86631944444443,0)" xlink:href="#aT"/></g><path fill="#fff" d="M135 0v-1490h581c339 0 533 210 533 503 0 295-197 500-540 500H440V0H135zm305-733h220c186 0 274-104 274-254s-88-251-275-251H440v505" id="bn"/><path fill="#fff" d="M128 0v-1118h300V0H128zm150-1264c-91 0-165-68-165-154 0-85 74-154 165-154 90 0 165 69 165 154 0 86-75 154-165 154" id="bo"/><path fill="#fff" d="M128 418v-1536h295v188h14c41-89 129-202 319-202 248 0 453 193 453 575 0 372-197 576-455 576-183 0-275-108-317-198h-9v597H128zm534-640c156 0 240-139 240-336 0-196-83-334-240-334-154 0-241 131-241 334 0 202 88 336 241 336" id="bp"/><path fill="#fff" d="M633 22C291 22 81-200 81-553c0-345 210-579 537-579 292 0 525 185 525 567v84H378c7 183 109 277 260 277 105 0 184-46 216-132l272 51C1071-99 893 22 633 22zM380-669h474c-15-146-94-237-233-237-143 0-229 99-241 237" id="bq"/><path fill="#fff" d="M428-1490V0H128v-1490h300" id="br"/><path fill="#fff" d="M428-647V0H128v-1118h283l4 231c63-156 176-245 348-245 232 0 384 159 384 421V0H847v-659c0-139-76-222-202-222-128 0-217 86-217 234" id="bs"/><g id="r"><use transform="matrix(0.010850694444444444,0,0,0.010850694444444444,0,0)" xlink:href="#bn"/><use transform="matrix(0.010850694444444444,0,0,0.010850694444444444,14.398871527777777,0)" xlink:href="#bo"/><use transform="matrix(0.010850694444444444,0,0,0.010850694444444444,20.421006944444443,0)" xlink:href="#bp"/><use transform="matrix(0.010850694444444444,0,0,0.010850694444444444,34.42925347222222,0)" xlink:href="#bq"/><use transform="matrix(0.010850694444444444,0,0,0.010850694444444444,47.66710069444444,0)" xlink:href="#br"/><use transform="matrix(0.010850694444444444,0,0,0.010850694444444444,53.68923611111111,0)" xlink:href="#bo"/><use transform="matrix(0.010850694444444444,0,0,0.010850694444444444,59.71137152777778,0)" xlink:href="#bs"/><use transform="matrix(0.010850694444444444,0,0,0.010850694444444444,73.54600694444444,0)" xlink:href="#bq"/></g><path fill="#fff" d="M628 22C291 22 81-210 81-554c0-346 210-578 547-578 265 0 455 142 497 372l-279 52c-25-116-99-188-215-188-160 0-244 139-244 341 0 200 84 341 244 341 116 0 193-74 217-195l279 51C1085-123 896 22 628 22" id="bt"/><path fill="#fff" d="M628 22C291 22 81-210 81-554c0-346 210-578 547-578 336 0 547 232 547 578 0 344-211 576-547 576zm0-236c160 0 242-146 242-341 0-197-82-341-242-341S387-753 387-555c0 195 81 341 241 341" id="bu"/><path fill="#fff" d="M750-1118v229H516V0H217v-889H20v-229h197v-86c0-238 156-356 363-356 94 0 178 20 215 31l-54 226c-25-7-61-15-100-15-123-3-131 84-125 200h234" id="bv"/><path fill="#fff" d="M625 442c-280 0-454-114-503-274l258-72c28 63 97 128 243 128 153 0 246-69 246-216v-206h-23C805-108 717-16 536-16 284-16 81-191 81-561c0-378 208-571 456-571 188 0 280 113 321 202h13v-188h295V-9c0 303-226 451-541 451zm5-686c153 0 240-119 240-319 0-198-86-329-240-329-158 0-241 137-241 329 0 195 85 319 241 319" id="bw"/><g id="s"><use transform="matrix(0.010850694444444444,0,0,0.010850694444444444,0,0)" xlink:href="#bt"/><use transform="matrix(0.010850694444444444,0,0,0.010850694444444444,13.075086805555555,0)" xlink:href="#bu"/><use transform="matrix(0.010850694444444444,0,0,0.010850694444444444,26.70355902777778,0)" xlink:href="#bs"/><use transform="matrix(0.010850694444444444,0,0,0.010850694444444444,40.53819444444444,0)" xlink:href="#bv"/><use transform="matrix(0.010850694444444444,0,0,0.010850694444444444,49.56597222222222,0)" xlink:href="#bo"/><use transform="matrix(0.010850694444444444,0,0,0.010850694444444444,55.588107638888886,0)" xlink:href="#bw"/></g><path fill="#fff" d="M49 0l509-1490h400L1480 0h-339l-115-346H497L386 0H49zm524-585h374c-75-213-124-402-192-666-66 268-110 453-182 666" id="bx"/><use transform="matrix(0.010850694444444444,0,0,0.010850694444444444,0,0)" xlink:href="#bx" id="t"/><path fill="#fff" d="M169-607c0-330 107-732 258-974h279c-145 311-231 674-231 974 0 262 67 512 231 886H427C258-1 169-307 169-607" id="by"/><g id="u"><use transform="matrix(0.010850694444444444,0,0,0.010850694444444444,0,0)" xlink:href="#by"/><use transform="matrix(0.010850694444444444,0,0,0.010850694444444444,8.778211805555555,0)" xlink:href="#bs"/></g><path fill="#fff" d="M128 0v-1118h290v195h12c54-169 184-238 367-200v268c-27-8-86-15-130-15-138 0-239 95-239 234V0H128" id="bz"/><path fill="#fff" d="M572 22C302 22 117-98 78-306l279-48c29 105 101 156 224 156 114 0 185-48 185-115 0-118-228-130-337-155-215-49-322-150-322-317 0-215 187-347 470-347 265 0 424 116 466 298l-266 47c-24-76-87-130-196-130-98 0-174 46-174 113 0 56 38 95 144 117l201 40c216 44 320 143 320 302 0 220-207 367-500 367" id="bA"/><path fill="#fff" d="M67 279c166-379 230-627 230-886 0-300-86-663-230-974h278c151 241 258 644 258 974 0 302-90 608-258 886H67" id="bB"/><g id="v"><use transform="matrix(0.010850694444444444,0,0,0.010850694444444444,0,0)" xlink:href="#bt"/><use transform="matrix(0.010850694444444444,0,0,0.010850694444444444,13.075086805555555,0)" xlink:href="#bu"/><use transform="matrix(0.010850694444444444,0,0,0.010850694444444444,26.70355902777778,0)" xlink:href="#bz"/><use transform="matrix(0.010850694444444444,0,0,0.010850694444444444,35.21050347222222,0)" xlink:href="#bq"/><use transform="matrix(0.010850694444444444,0,0,0.010850694444444444,48.44835069444444,0)" xlink:href="#bA"/><use transform="matrix(0.010850694444444444,0,0,0.010850694444444444,60.89409722222222,0)" xlink:href="#bB"/></g><path fill="#fff" d="M158 418v-1536h174v179h20c37-59 106-193 324-193 279 0 474 222 474 576 0 356-194 580-473 580-213 0-288-135-325-197h-14v591H158zm492-555c209 0 317-186 317-421 0-232-105-413-317-413-206 0-314 166-314 413 0 249 111 421 314 421" id="bC"/><path fill="#fff" d="M158 0v-1118h180V0H158zm91-1301c-68 0-125-53-125-119s57-119 125-119c69 0 126 53 126 119s-57 119-126 119" id="bD"/><path fill="#fff" d="M628 24c-324 0-524-230-524-574 0-343 198-582 503-582 237 0 487 146 487 559v75H286c9 234 145 362 343 362 132 0 231-58 273-172l174 48C1024-91 857 24 628 24zM287-650h624c-17-190-120-322-304-322-192 0-309 151-320 322" id="bE"/><path fill="#fff" d="M338-1490V0H158v-1490h180" id="bF"/><path fill="#fff" d="M338-670V0H158v-1118h173l1 207c72-158 192-221 342-221 226 0 378 139 378 422V0H872v-695c0-172-96-275-252-275-161 0-282 109-282 300" id="bG"/><path fill="#fff" d="M798-719v166H144v-166h654" id="bH"/><path fill="#fff" d="M481 0L54-1118h197c107 314 236 620 325 951 87-331 217-637 324-951h197L670 0H481" id="bI"/><g id="w"><use transform="matrix(0.008680555555555556,0,0,0.008680555555555556,0,0)" xlink:href="#bC"/><use transform="matrix(0.008680555555555556,0,0,0.008680555555555556,10.885416666666668,0)" xlink:href="#bD"/><use transform="matrix(0.008680555555555556,0,0,0.008680555555555556,15.190972222222223,0)" xlink:href="#bC"/><use transform="matrix(0.008680555555555556,0,0,0.008680555555555556,26.076388888888893,0)" xlink:href="#bE"/><use transform="matrix(0.008680555555555556,0,0,0.008680555555555556,36.44097222222223,0)" xlink:href="#bF"/><use transform="matrix(0.008680555555555556,0,0,0.008680555555555556,40.746527777777786,0)" xlink:href="#bD"/><use transform="matrix(0.008680555555555556,0,0,0.008680555555555556,45.05208333333334,0)" xlink:href="#bG"/><use transform="matrix(0.008680555555555556,0,0,0.008680555555555556,55.555555555555564,0)" xlink:href="#bE"/><use transform="matrix(0.008680555555555556,0,0,0.008680555555555556,65.9201388888889,0)" xlink:href="#bH"/><use transform="matrix(0.008680555555555556,0,0,0.008680555555555556,74.09722222222223,0)" xlink:href="#bF"/><use transform="matrix(0.008680555555555556,0,0,0.008680555555555556,78.40277777777779,0)" xlink:href="#bE"/><use transform="matrix(0.008680555555555556,0,0,0.008680555555555556,88.42013888888889,0)" xlink:href="#bI"/><use transform="matrix(0.008680555555555556,0,0,0.008680555555555556,98.0642361111111,0)" xlink:href="#bE"/><use transform="matrix(0.008680555555555556,0,0,0.008680555555555556,108.42881944444443,0)" xlink:href="#bF"/></g><path fill="#fff" d="M613 24c-304 0-509-231-509-576 0-350 205-580 509-580 216 0 392 114 453 309l-173 49c-33-115-133-197-280-197-223 0-326 196-326 419 0 220 103 415 326 415 150 0 252-85 285-206l172 49C1010-95 832 24 613 24" id="bJ"/><path fill="#fff" d="M613 24c-304 0-509-231-509-576 0-350 205-580 509-580 305 0 511 230 511 580 0 345-206 576-511 576zm0-161c226 0 329-195 329-415 0-222-103-419-329-419-223 0-326 196-326 419 0 220 103 415 326 415" id="bK"/><path fill="#fff" d="M678-1118v154H420V0H240v-964H20v-154h220v-149c0-194 155-293 318-293 85 0 141 18 168 30l-50 154c-19-6-47-17-97-17-111 0-159 58-159 166v109h258" id="bL"/><path fill="#fff" d="M128 359l88-567h206L266 359H128" id="bM"/><g id="x"><use transform="matrix(0.008680555555555556,0,0,0.008680555555555556,0,0)" xlink:href="#bJ"/><use transform="matrix(0.008680555555555556,0,0,0.008680555555555556,10.15625,0)" xlink:href="#bK"/><use transform="matrix(0.008680555555555556,0,0,0.008680555555555556,20.81597222222222,0)" xlink:href="#bG"/><use transform="matrix(0.008680555555555556,0,0,0.008680555555555556,31.319444444444443,0)" xlink:href="#bL"/><use transform="matrix(0.008680555555555556,0,0,0.008680555555555556,36.892361111111114,0)" xlink:href="#bM"/></g><path fill="#fff" d="M538 24C308 24 148-78 108-271l171-41c32 123 123 178 257 178 156 0 256-77 256-169 0-77-54-128-164-154l-186-44c-203-48-300-148-300-305 0-192 176-326 414-326 230 0 351 112 402 269l-163 42c-31-80-94-158-238-158-133 0-233 69-233 162 0 83 57 129 188 160l169 40c203 48 298 149 298 302 0 196-179 339-441 339" id="bN"/><g id="y"><use transform="matrix(0.008680555555555556,0,0,0.008680555555555556,0,0)" xlink:href="#bC"/><use transform="matrix(0.008680555555555556,0,0,0.008680555555555556,10.885416666666668,0)" xlink:href="#bK"/><use transform="matrix(0.008680555555555556,0,0,0.008680555555555556,21.545138888888893,0)" xlink:href="#bF"/><use transform="matrix(0.008680555555555556,0,0,0.008680555555555556,25.85069444444445,0)" xlink:href="#bD"/><use transform="matrix(0.008680555555555556,0,0,0.008680555555555556,30.156250000000004,0)" xlink:href="#bJ"/><use transform="matrix(0.008680555555555556,0,0,0.008680555555555556,40.31250000000001,0)" xlink:href="#bD"/><use transform="matrix(0.008680555555555556,0,0,0.008680555555555556,44.618055555555564,0)" xlink:href="#bE"/><use transform="matrix(0.008680555555555556,0,0,0.008680555555555556,54.9826388888889,0)" xlink:href="#bN"/></g><path fill="#fff" d="M580 20c-295 0-476-179-476-409 0-189 123-290 294-416-104-125-173-226-173-362 0-197 144-337 365-337 224 0 362 144 362 321 0 185-174 312-306 405l319 387c38-75 61-165 61-267h173c0 208-62 332-120 406L1287 0h-217L967-124C868-27 716 20 580 20zm279-273L507-675l-51 38c-123 91-167 162-167 254 0 147 113 246 278 246 107 0 210-41 292-116zM538-908l97-72c54-40 136-101 136-206 0-95-68-163-176-163-113 0-189 74-189 181 0 90 53 164 132 260" id="bO"/><use transform="matrix(0.008680555555555556,0,0,0.008680555555555556,0,0)" xlink:href="#bO" id="z"/><path fill="#fff" d="M677 24c-213 0-288-135-325-197h-20V0H158v-1490h180v551h14c37-59 106-193 324-193 279 0 474 222 474 576 0 356-194 580-473 580zm-27-161c209 0 317-186 317-421 0-232-105-413-317-413-206 0-314 166-314 413 0 249 111 421 314 421" id="bP"/><path fill="#fff" d="M537 14c-226 0-379-139-379-422v-710h180v695c0 172 97 275 253 275 160 0 281-109 281-300v-670h181V0H879v-209C806-46 684 14 537 14" id="bQ"/><path fill="#fff" d="M577 24c-279 0-473-224-473-580 0-354 195-576 474-576 218 0 287 134 324 193h14v-551h180V0H922v-173h-20C865-111 790 24 577 24zm27-161c203 0 314-172 314-421 0-247-108-413-314-413-212 0-317 181-317 413 0 235 108 421 317 421" id="bR"/><path fill="#fff" d="M611 442c-248 0-391-105-460-228l146-94c47 65 117 165 314 165 178 0 307-82 307-266v-224h-17C863-141 792-18 576-18c-268 0-472-195-472-546 0-346 197-568 476-568 216 0 288 133 326 193h17v-179h175V29c0 289-215 413-487 413zm-5-620c203 0 314-146 314-390 0-237-108-403-314-403-213 0-319 180-319 403 0 230 109 390 319 390" id="bS"/><path fill="#fff" d="M598-1118v154H368v674c0 100 37 144 132 144 23 0 62-6 92-12L629-6c-37 13-88 20-134 20-193 0-307-107-307-290v-688H20v-154h168v-266h180v266h230" id="bT"/><g id="A"><use transform="matrix(0.008680555555555556,0,0,0.008680555555555556,0,0)" xlink:href="#bP"/><use transform="matrix(0.008680555555555556,0,0,0.008680555555555556,10.885416666666668,0)" xlink:href="#bQ"/><use transform="matrix(0.008680555555555556,0,0,0.008680555555555556,21.397569444444446,0)" xlink:href="#bR"/><use transform="matrix(0.008680555555555556,0,0,0.008680555555555556,32.282986111111114,0)" xlink:href="#bS"/><use transform="matrix(0.008680555555555556,0,0,0.008680555555555556,43.18576388888889,0)" xlink:href="#bE"/><use transform="matrix(0.008680555555555556,0,0,0.008680555555555556,53.55034722222222,0)" xlink:href="#bT"/><use transform="matrix(0.008680555555555556,0,0,0.008680555555555556,59.192708333333336,0)" xlink:href="#bN"/></g><filter id="q" filterUnits="objectBoundingBox" x="-.03" y="-.05" width="1.06" height="1.24"><feOffset result="offOut" in="SourceAlpha" dy="6"/><feGaussianBlur result="blurOut" in="offOut" stdDeviation="5"/><feColorMatrix result="colorOut" in="blurOut" values="0 0 0 0 0 0 0 0 0 0 0 0 0 0 0 0 0 0 0.5019607843137255 0"/><feBlend in="SourceGraphic" in2="colorOut"/></filter><path fill="#fff" d="M135 0v-1490h591c327 0 492 160 492 383 0 177-115 286-268 320v15c168 8 326 140 326 361 0 236-176 411-512 411H135zm305-251h264c179 0 258-76 258-189 0-125-97-215-250-215H440v404zm0-613h241c131 0 228-74 228-194 0-109-79-183-222-183H440v377" id="bU"/><use transform="matrix(0.010850694444444444,0,0,0.010850694444444444,0,0)" xlink:href="#bU" id="B"/><path fill="#fff" d="M128 0v-1118h278l12 217c60-163 185-234 319-234 143 0 236 81 288 251 63-172 205-251 359-251 205 0 357 138 357 381V0h-301v-697c0-126-76-187-177-187-114 0-184 79-184 196V0H789v-705c0-109-72-179-174-179-106 0-187 74-187 208V0H128" id="bV"/><g id="C"><use transform="matrix(0.010850694444444444,0,0,0.010850694444444444,0,0)" xlink:href="#by"/><use transform="matrix(0.010850694444444444,0,0,0.010850694444444444,8.778211805555555,0)" xlink:href="#bV"/></g><path fill="#3a414a" d="M295 13c-75 0-135-60-135-135s60-135 135-135 135 60 135 135S370 13 295 13" id="bW"/><g id="D"><use transform="matrix(0.013020833333333334,0,0,0.013020833333333334,0,0)" xlink:href="#bW"/><use transform="matrix(0.013020833333333334,0,0,0.013020833333333334,7.682291666666667,0)" xlink:href="#bW"/><use transform="matrix(0.013020833333333334,0,0,0.013020833333333334,15.364583333333334,0)" xlink:href="#bW"/></g><path fill="#3a414a" d="M440-1490V0H135v-1490h305" id="bX"/><path fill="#3a414a" d="M440 22C227 22 68-92 68-313c0-250 202-322 422-343 195-21 271-24 271-105 0-95-63-149-175-149-116 0-187 57-211 129l-275-46c57-194 237-305 487-305 240 0 474 108 474 379V0H777v-155h-10C713-51 605 22 440 22zm85-211c140 0 238-93 238-211v-121c-37 26-156 42-222 51-111 16-185 59-185 149 0 87 70 132 169 132" id="bY"/><g id="F"><use transform="matrix(0.008680555555555556,0,0,0.008680555555555556,0,0)" xlink:href="#bX"/><use transform="matrix(0.008680555555555556,0,0,0.008680555555555556,4.991319444444445,0)" xlink:href="#aF"/><use transform="matrix(0.008680555555555556,0,0,0.008680555555555556,16.05902777777778,0)" xlink:href="#aL"/><use transform="matrix(0.008680555555555556,0,0,0.008680555555555556,22.395833333333336,0)" xlink:href="#aI"/><use transform="matrix(0.008680555555555556,0,0,0.008680555555555556,32.986111111111114,0)" xlink:href="#aM"/><use transform="matrix(0.008680555555555556,0,0,0.008680555555555556,40.355902777777786,0)" xlink:href="#aF"/><use transform="matrix(0.008680555555555556,0,0,0.008680555555555556,51.42361111111112,0)" xlink:href="#bY"/><use transform="matrix(0.008680555555555556,0,0,0.008680555555555556,61.74479166666668,0)" xlink:href="#aN"/></g><path fill="#3a414a" d="M128 0v-1118h278l12 217c60-163 185-234 319-234 143 0 236 81 288 251 63-172 205-251 359-251 205 0 357 138 357 381V0h-301v-697c0-126-76-187-177-187-114 0-184 79-184 196V0H789v-705c0-109-72-179-174-179-106 0-187 74-187 208V0H128" id="bZ"/><path fill="#3a414a" d="M120 396l69-226c123 42 245 23 254-107l8-60L31-1118h319c87 288 199 559 259 872 72-308 185-583 277-872h315L726 132c-68 181-186 294-410 294-79 0-153-13-196-30" id="ca"/><g id="G"><use transform="matrix(0.008680555555555556,0,0,0.008680555555555556,0,0)" xlink:href="#az"/><use transform="matrix(0.008680555555555556,0,0,0.008680555555555556,10.477430555555555,0)" xlink:href="#aI"/><use transform="matrix(0.008680555555555556,0,0,0.008680555555555556,21.067708333333336,0)" xlink:href="#aN"/><use transform="matrix(0.008680555555555556,0,0,0.008680555555555556,25.88541666666667,0)" xlink:href="#aI"/><use transform="matrix(0.008680555555555556,0,0,0.008680555555555556,36.47569444444444,0)" xlink:href="#bZ"/><use transform="matrix(0.008680555555555556,0,0,0.008680555555555556,52.699652777777786,0)" xlink:href="#aI"/><use transform="matrix(0.008680555555555556,0,0,0.008680555555555556,63.289930555555564,0)" xlink:href="#aL"/><use transform="matrix(0.008680555555555556,0,0,0.008680555555555556,69.80034722222223,0)" xlink:href="#aM"/><use transform="matrix(0.008680555555555556,0,0,0.008680555555555556,77.31770833333331,0)" xlink:href="#ca"/></g><path fill="#3a414a" d="M681 22C323 22 94-145 85-462h297c10 151 131 226 296 226 163 0 271-77 271-190 0-102-95-149-257-189l-164-41c-252-61-403-188-403-405 0-269 236-449 560-449 330 0 546 183 551 445H941c-11-119-106-188-259-188-156 0-244 72-244 172-3 156 226 185 373 221 250 61 445 186 445 436 0 271-213 446-575 446" id="cb"/><path fill="#3a414a" d="M572 22C302 22 117-98 78-306l279-48c29 105 101 156 224 156 114 0 185-48 185-115 0-118-228-130-337-155-215-49-322-150-322-317 0-215 187-347 470-347 265 0 424 116 466 298l-266 47c-24-76-87-130-196-130-98 0-174 46-174 113 0 56 38 95 144 117l201 40c216 44 320 143 320 302 0 220-207 367-500 367" id="cc"/><g id="H"><use transform="matrix(0.008680555555555556,0,0,0.008680555555555556,0,0)" xlink:href="#cb"/><use transform="matrix(0.008680555555555556,0,0,0.008680555555555556,11.640625,0)" xlink:href="#ca"/><use transform="matrix(0.008680555555555556,0,0,0.008680555555555556,22.34375,0)" xlink:href="#cc"/><use transform="matrix(0.008680555555555556,0,0,0.008680555555555556,32.30034722222222,0)" xlink:href="#aL"/><use transform="matrix(0.008680555555555556,0,0,0.008680555555555556,38.63715277777777,0)" xlink:href="#aI"/><use transform="matrix(0.008680555555555556,0,0,0.008680555555555556,49.22743055555555,0)" xlink:href="#bZ"/></g><path fill="#3a414a" d="M169-607c0-330 107-732 258-974h279c-145 311-231 674-231 974 0 262 67 512 231 886H427C258-1 169-307 169-607" id="cd"/><path fill="#3a414a" d="M67 279c166-379 230-627 230-886 0-300-86-663-230-974h278c151 241 258 644 258 974 0 302-90 608-258 886H67" id="ce"/><g id="I"><use transform="matrix(0.008680555555555556,0,0,0.008680555555555556,0,0)" xlink:href="#cd"/><use transform="matrix(0.008680555555555556,0,0,0.008680555555555556,7.022569444444445,0)" xlink:href="#bX"/><use transform="matrix(0.008680555555555556,0,0,0.008680555555555556,12.01388888888889,0)" xlink:href="#az"/><use transform="matrix(0.008680555555555556,0,0,0.008680555555555556,23.880208333333336,0)" xlink:href="#cb"/><use transform="matrix(0.008680555555555556,0,0,0.008680555555555556,35.520833333333336,0)" xlink:href="#ce"/></g><path fill="#3a414a" d="M653-1490V0H466v-1314h-10L96-1047v-204l324-239h233" id="cf"/><use transform="matrix(0.008680555555555556,0,0,0.008680555555555556,0,0)" xlink:href="#cf" id="J"/><g id="K"><use transform="matrix(0.008680555555555556,0,0,0.008680555555555556,0,0)" xlink:href="#aZ"/><use transform="matrix(0.008680555555555556,0,0,0.008680555555555556,10.885416666666668,0)" xlink:href="#aO"/><use transform="matrix(0.008680555555555556,0,0,0.008680555555555556,21.25,0)" xlink:href="#bm"/></g><path fill="#3a414a" d="M180 0v-1490h224l606 953c40 63 108 177 176 312-27-437-7-821-13-1265h190V0h-226C860-448 622-778 356-1262c27 476 11 792 15 1262H180" id="cg"/><path fill="#3a414a" d="M763 24c-353 0-583-224-583-531v-983h190v968c0 214 149 370 393 370 243 0 391-156 391-370v-968h190v983c0 307-230 531-581 531" id="ch"/><path fill="#3a414a" d="M180 0v-1490h270l367 940c28 72 75 218 110 339 35-117 81-264 110-339l362-940h271V0h-187c2-448-5-837 7-1287-157 497-311 829-483 1287H842C666-458 514-784 354-1284c12 438 5 843 7 1284H180" id="ci"/><path fill="#3a414a" d="M52 0l541-1490h220L1361 0h-200l-149-416H398L254 0H52zm404-582h497c-103-290-145-390-251-756-108 377-145 460-246 756" id="cj"/><g id="L"><use transform="matrix(0.008680555555555556,0,0,0.008680555555555556,0,0)" xlink:href="#cg"/><use transform="matrix(0.008680555555555556,0,0,0.008680555555555556,13.394097222222223,0)" xlink:href="#ch"/><use transform="matrix(0.008680555555555556,0,0,0.008680555555555556,26.623263888888893,0)" xlink:href="#ci"/><use transform="matrix(0.008680555555555556,0,0,0.008680555555555556,42.68229166666667,0)" xlink:href="#cj"/></g><g id="M"><use transform="matrix(0.008680555555555556,0,0,0.008680555555555556,0,0)" xlink:href="#bm"/><use transform="matrix(0.008680555555555556,0,0,0.008680555555555556,6.397569444444445,0)" xlink:href="#aO"/><use transform="matrix(0.008680555555555556,0,0,0.008680555555555556,16.76215277777778,0)" xlink:href="#aQ"/><use transform="matrix(0.008680555555555556,0,0,0.008680555555555556,27.664930555555557,0)" xlink:href="#aR"/><use transform="matrix(0.008680555555555556,0,0,0.008680555555555556,31.970486111111114,0)" xlink:href="#aW"/><use transform="matrix(0.008680555555555556,0,0,0.008680555555555556,42.630208333333336,0)" xlink:href="#aP"/><use transform="matrix(0.008680555555555556,0,0,0.008680555555555556,53.13368055555556,0)" xlink:href="#aY"/></g><path fill="#3a414a" d="M784 20c-382 0-662-292-662-764 0-473 280-766 662-766s660 293 660 766c0 472-278 764-660 764zm0-176c266 0 475-207 475-588 0-383-209-590-475-590-268 0-477 208-477 590 0 380 209 588 477 588" id="ck"/><path fill="#3a414a" d="M98-1322v-168h1126v168H757V0H567v-1322H98" id="cl"/><path fill="#3a414a" d="M180 0v-1490h510c348 0 508 209 508 474 0 266-160 477-507 477H370V0H180zm190-706h312c236 0 327-133 327-310 0-176-91-307-329-307H370v617" id="cm"/><g id="N"><use transform="matrix(0.008680555555555556,0,0,0.008680555555555556,0,0)" xlink:href="#ck"/><use transform="matrix(0.008680555555555556,0,0,0.008680555555555556,13.064236111111112,0)" xlink:href="#cl"/><use transform="matrix(0.008680555555555556,0,0,0.008680555555555556,23.02951388888889,0)" xlink:href="#cj"/><use transform="matrix(0.008680555555555556,0,0,0.008680555555555556,35.295138888888886,0)" xlink:href="#cm"/></g><path fill="#3a414a" d="M471 26C259 26 90-98 90-318c0-256 228-303 435-329 202-27 287-16 287-108 0-139-79-219-234-219-161 0-248 86-283 164l-173-57c86-203 278-265 451-265 150 0 419 46 419 395V0H815v-152h-12C765-73 660 26 471 26zm31-159c199 0 310-134 310-271v-155c-30 35-226 55-295 64-131 17-246 59-246 186 0 116 97 176 231 176" id="cn"/><g id="O"><use transform="matrix(0.008680555555555556,0,0,0.008680555555555556,0,0)" xlink:href="#cm"/><use transform="matrix(0.008680555555555556,0,0,0.008680555555555556,11.354166666666668,0)" xlink:href="#aR"/><use transform="matrix(0.008680555555555556,0,0,0.008680555555555556,15.659722222222223,0)" xlink:href="#aZ"/><use transform="matrix(0.008680555555555556,0,0,0.008680555555555556,26.545138888888893,0)" xlink:href="#aO"/><use transform="matrix(0.008680555555555556,0,0,0.008680555555555556,36.90972222222223,0)" xlink:href="#aT"/><use transform="matrix(0.008680555555555556,0,0,0.008680555555555556,41.215277777777786,0)" xlink:href="#aR"/><use transform="matrix(0.008680555555555556,0,0,0.008680555555555556,45.52083333333334,0)" xlink:href="#aP"/><use transform="matrix(0.008680555555555556,0,0,0.008680555555555556,56.024305555555564,0)" xlink:href="#aO"/><use transform="matrix(0.008680555555555556,0,0,0.008680555555555556,66.3888888888889,0)" xlink:href="#aS"/><use transform="matrix(0.008680555555555556,0,0,0.008680555555555556,74.56597222222223,0)" xlink:href="#bc"/><use transform="matrix(0.008680555555555556,0,0,0.008680555555555556,85.62500000000001,0)" xlink:href="#cn"/><use transform="matrix(0.008680555555555556,0,0,0.008680555555555556,95.6076388888889,0)" xlink:href="#ba"/><use transform="matrix(0.008680555555555556,0,0,0.008680555555555556,104.99131944444447,0)" xlink:href="#aO"/><use transform="matrix(0.008680555555555556,0,0,0.008680555555555556,115.35590277777779,0)" xlink:href="#be"/><use transform="matrix(0.008680555555555556,0,0,0.008680555555555556,126.24131944444446,0)" xlink:href="#aY"/></g><g id="P"><use transform="matrix(0.008680555555555556,0,0,0.008680555555555556,0,0)" xlink:href="#aV"/><use transform="matrix(0.008680555555555556,0,0,0.008680555555555556,10.15625,0)" xlink:href="#aW"/><use transform="matrix(0.008680555555555556,0,0,0.008680555555555556,20.81597222222222,0)" xlink:href="#aP"/><use transform="matrix(0.008680555555555556,0,0,0.008680555555555556,31.319444444444443,0)" xlink:href="#aX"/><use transform="matrix(0.008680555555555556,0,0,0.008680555555555556,37.89930555555556,0)" xlink:href="#aR"/><use transform="matrix(0.008680555555555556,0,0,0.008680555555555556,42.204861111111114,0)" xlink:href="#aQ"/></g><g id="Q"><use transform="matrix(0.008680555555555556,0,0,0.008680555555555556,0,0)" xlink:href="#be"/><use transform="matrix(0.008680555555555556,0,0,0.008680555555555556,10.885416666666668,0)" xlink:href="#aO"/><use transform="matrix(0.008680555555555556,0,0,0.008680555555555556,21.25,0)" xlink:href="#aX"/><use transform="matrix(0.008680555555555556,0,0,0.008680555555555556,27.82986111111111,0)" xlink:href="#aR"/><use transform="matrix(0.008680555555555556,0,0,0.008680555555555556,32.135416666666664,0)" xlink:href="#aP"/><use transform="matrix(0.008680555555555556,0,0,0.008680555555555556,42.638888888888886,0)" xlink:href="#aO"/><use transform="matrix(0.008680555555555556,0,0,0.008680555555555556,53.00347222222222,0)" xlink:href="#be"/></g><g id="R"><use transform="matrix(0.008680555555555556,0,0,0.008680555555555556,0,0)" xlink:href="#cn"/><use transform="matrix(0.008680555555555556,0,0,0.008680555555555556,9.98263888888889,0)" xlink:href="#bf"/></g><path fill="#3a414a" d="M338-670V0H158v-1490h180v566c73-149 190-208 336-208 226 0 379 139 379 422V0H872v-695c0-172-96-275-252-275-161 0-282 109-282 300" id="co"/><g id="S"><use transform="matrix(0.008680555555555556,0,0,0.008680555555555556,0,0)" xlink:href="#bf"/><use transform="matrix(0.008680555555555556,0,0,0.008680555555555556,5.815972222222222,0)" xlink:href="#co"/><use transform="matrix(0.008680555555555556,0,0,0.008680555555555556,16.328125,0)" xlink:href="#aO"/></g><g id="T"><use transform="matrix(0.008680555555555556,0,0,0.008680555555555556,0,0)" xlink:href="#aO"/><use transform="matrix(0.008680555555555556,0,0,0.008680555555555556,10.364583333333334,0)" xlink:href="#aP"/><use transform="matrix(0.008680555555555556,0,0,0.008680555555555556,20.868055555555557,0)" xlink:href="#aQ"/><use transform="matrix(0.008680555555555556,0,0,0.008680555555555556,31.770833333333336,0)" xlink:href="#aR"/><use transform="matrix(0.008680555555555556,0,0,0.008680555555555556,36.07638888888889,0)" xlink:href="#aP"/><use transform="matrix(0.008680555555555556,0,0,0.008680555555555556,46.579861111111114,0)" xlink:href="#aO"/><use transform="matrix(0.008680555555555556,0,0,0.008680555555555556,56.94444444444445,0)" xlink:href="#aS"/><use transform="matrix(0.008680555555555556,0,0,0.008680555555555556,65.12152777777779,0)" xlink:href="#aT"/><use transform="matrix(0.008680555555555556,0,0,0.008680555555555556,69.42708333333334,0)" xlink:href="#aO"/><use transform="matrix(0.008680555555555556,0,0,0.008680555555555556,79.44444444444444,0)" xlink:href="#aU"/><use transform="matrix(0.008680555555555556,0,0,0.008680555555555556,89.08854166666666,0)" xlink:href="#aO"/><use transform="matrix(0.008680555555555556,0,0,0.008680555555555556,99.45312499999999,0)" xlink:href="#aT"/></g><filter id="E" filterUnits="objectBoundingBox" x="-.01" y="-.05" width="1.02" height="1.27"><feOffset result="offOut" in="SourceAlpha" dy="6"/><feGaussianBlur result="blurOut" in="offOut" stdDeviation="5"/><feColorMatrix result="colorOut" in="blurOut" values="0 0 0 0 0 0 0 0 0 0 0 0 0 0 0 0 0 0 0.5019607843137255 0"/><feBlend in="SourceGraphic" in2="colorOut"/></filter><path fill="#3a414a" d="M135 0v-1490h305v1237h643V0H135" id="cp"/><path fill="#3a414a" d="M119 395l88-620h300L323 395H119" id="cq"/><g id="U"><use transform="matrix(0.008680555555555556,0,0,0.008680555555555556,0,0)" xlink:href="#ay"/><use transform="matrix(0.008680555555555556,0,0,0.008680555555555556,13.133680555555559,0)" xlink:href="#az"/><use transform="matrix(0.008680555555555556,0,0,0.008680555555555556,25,0)" xlink:href="#cp"/><use transform="matrix(0.008680555555555556,0,0,0.008680555555555556,35.052083333333336,0)" xlink:href="#aB"/><use transform="matrix(0.008680555555555556,0,0,0.008680555555555556,45.86805555555556,0)" xlink:href="#cq"/></g><g id="V"><use transform="matrix(0.008680555555555556,0,0,0.008680555555555556,0,0)" xlink:href="#ay"/><use transform="matrix(0.008680555555555556,0,0,0.008680555555555556,13.133680555555559,0)" xlink:href="#az"/><use transform="matrix(0.008680555555555556,0,0,0.008680555555555556,23.420138888888893,0)" xlink:href="#aA"/><use transform="matrix(0.008680555555555556,0,0,0.008680555555555556,36.692708333333336,0)" xlink:href="#aB"/><use transform="matrix(0.008680555555555556,0,0,0.008680555555555556,47.50868055555556,0)" xlink:href="#cq"/></g><path fill="#3a414a" d="M428-647V0H128v-1490h294v586c65-146 175-228 341-228 232 0 385 159 385 421V0H847v-659c0-139-76-222-202-222-128 0-217 86-217 234" id="cr"/><g id="W"><use transform="matrix(0.008680555555555556,0,0,0.008680555555555556,0,0)" xlink:href="#aB"/><use transform="matrix(0.008680555555555556,0,0,0.008680555555555556,11.519097222222223,0)" xlink:href="#aM"/><use transform="matrix(0.008680555555555556,0,0,0.008680555555555556,18.32465277777778,0)" xlink:href="#aK"/><use transform="matrix(0.008680555555555556,0,0,0.008680555555555556,29.227430555555557,0)" xlink:href="#bZ"/><use transform="matrix(0.008680555555555556,0,0,0.008680555555555556,45.45138888888889,0)" xlink:href="#aI"/><use transform="matrix(0.008680555555555556,0,0,0.008680555555555556,56.04166666666667,0)" xlink:href="#aL"/><use transform="matrix(0.008680555555555556,0,0,0.008680555555555556,62.595486111111114,0)" xlink:href="#cr"/><use transform="matrix(0.008680555555555556,0,0,0.008680555555555556,73.66319444444444,0)" xlink:href="#aI"/><use transform="matrix(0.008680555555555556,0,0,0.008680555555555556,84.25347222222223,0)" xlink:href="#bi"/><use transform="matrix(0.008680555555555556,0,0,0.008680555555555556,95.32118055555556,0)" xlink:href="#cc"/><use transform="matrix(0.008680555555555556,0,0,0.008680555555555556,105.27777777777779,0)" xlink:href="#cq"/></g><path fill="#3a414a" d="M342 19c-98 0-173-75-173-172s75-172 173-172 173 75 173 172S440 19 342 19" id="cs"/><g id="X"><use transform="matrix(0.008680555555555556,0,0,0.008680555555555556,0,0)" xlink:href="#cs"/><use transform="matrix(0.008680555555555556,0,0,0.008680555555555556,5.9375,0)" xlink:href="#cs"/><use transform="matrix(0.008680555555555556,0,0,0.008680555555555556,11.875,0)" xlink:href="#cs"/></g><path fill="#3a414a" d="M135 0v-1490h305c1 251 0 501-5 746 157-254 405-512 598-746h373L849-845 1422 0h-361L638-644 440-426V0H135" id="ct"/><path fill="#3a414a" d="M666 20C332 20 94-158 94-400c0-186 139-340 321-370v-9c-159-33-267-168-267-331 0-230 219-400 518-400 298 0 519 171 519 400 0 163-111 298-266 331v9c177 30 321 184 321 370 0 242-241 420-574 420zm0-226c153 0 255-89 255-218 0-131-108-226-255-226-148 0-255 94-255 226 0 128 101 218 255 218zm0-668c127 0 220-84 220-203s-90-200-220-200-220 80-220 200c0 119 92 203 220 203" id="cu"/><path fill="#3a414a" d="M818-733v240H140v-240h678" id="cv"/><g id="Y"><use transform="matrix(0.008680555555555556,0,0,0.008680555555555556,0,0)" xlink:href="#ct"/><use transform="matrix(0.008680555555555556,0,0,0.008680555555555556,12.786458333333334,0)" xlink:href="#cu"/><use transform="matrix(0.008680555555555556,0,0,0.008680555555555556,24.35763888888889,0)" xlink:href="#cb"/><use transform="matrix(0.008680555555555556,0,0,0.008680555555555556,35.998263888888886,0)" xlink:href="#cv"/><use transform="matrix(0.008680555555555556,0,0,0.008680555555555556,44.31423611111111,0)" xlink:href="#cc"/><use transform="matrix(0.008680555555555556,0,0,0.008680555555555556,54.27083333333333,0)" xlink:href="#aL"/><use transform="matrix(0.008680555555555556,0,0,0.008680555555555556,61.17187499999999,0)" xlink:href="#ca"/><use transform="matrix(0.008680555555555556,0,0,0.008680555555555556,71.91840277777777,0)" xlink:href="#aN"/><use transform="matrix(0.008680555555555556,0,0,0.008680555555555556,76.7361111111111,0)" xlink:href="#aI"/></g><path fill="#3a414a" d="M537 19C279 19 81-185 81-557c0-382 206-575 454-575 190 0 278 113 318 202h10v-560h300V0H868v-179h-15C812-89 719 19 537 19zm92-241c153 0 240-134 240-336 0-203-86-334-240-334-158 0-240 138-240 334 0 197 84 336 240 336" id="cw"/><g id="Z"><use transform="matrix(0.008680555555555556,0,0,0.008680555555555556,0,0)" xlink:href="#aI"/><use transform="matrix(0.008680555555555556,0,0,0.008680555555555556,10.590277777777779,0)" xlink:href="#aF"/><use transform="matrix(0.008680555555555556,0,0,0.008680555555555556,21.657986111111114,0)" xlink:href="#cw"/><use transform="matrix(0.008680555555555556,0,0,0.008680555555555556,32.864583333333336,0)" xlink:href="#bg"/><use transform="matrix(0.008680555555555556,0,0,0.008680555555555556,44.07118055555556,0)" xlink:href="#aK"/><use transform="matrix(0.008680555555555556,0,0,0.008680555555555556,54.973958333333336,0)" xlink:href="#aH"/><use transform="matrix(0.008680555555555556,0,0,0.008680555555555556,59.79166666666667,0)" xlink:href="#aF"/><use transform="matrix(0.008680555555555556,0,0,0.008680555555555556,70.859375,0)" xlink:href="#aL"/><use transform="matrix(0.008680555555555556,0,0,0.008680555555555556,77.23958333333334,0)" xlink:href="#cc"/></g><path fill="#3a414a" d="M692-1560L212 224H46l480-1784h166" id="cx"/><g id="aa"><use transform="matrix(0.008680555555555556,0,0,0.008680555555555556,0,0)" xlink:href="#cx"/><use transform="matrix(0.008680555555555556,0,0,0.008680555555555556,6.40625,0)" xlink:href="#ba"/><use transform="matrix(0.008680555555555556,0,0,0.008680555555555556,15.789930555555557,0)" xlink:href="#bf"/><use transform="matrix(0.008680555555555556,0,0,0.008680555555555556,21.69270833333333,0)" xlink:href="#cn"/><use transform="matrix(0.008680555555555556,0,0,0.008680555555555556,31.67534722222222,0)" xlink:href="#bf"/><use transform="matrix(0.008680555555555556,0,0,0.008680555555555556,37.49131944444444,0)" xlink:href="#bd"/><use transform="matrix(0.008680555555555556,0,0,0.008680555555555556,48.00347222222222,0)" xlink:href="#ba"/></g><path fill="#3a414a" d="M140 405l46-156c120 36 205 19 263-150l32-93L54-1118h197c107 313 237 620 324 950 87-331 219-637 326-950h196L606 167c-68 178-176 259-334 259-64 0-113-12-132-21" id="cy"/><path fill="#3a414a" d="M126 0v-134l627-806v-11H146v-167h839v143L376-178v11h629V0H126" id="cz"/><g id="ab"><use transform="matrix(0.008680555555555556,0,0,0.008680555555555556,0,0)" xlink:href="#cx"/><use transform="matrix(0.008680555555555556,0,0,0.008680555555555556,6.40625,0)" xlink:href="#bm"/><use transform="matrix(0.008680555555555556,0,0,0.008680555555555556,12.803819444444445,0)" xlink:href="#aO"/><use transform="matrix(0.008680555555555556,0,0,0.008680555555555556,23.34201388888889,0)" xlink:href="#cn"/><use transform="matrix(0.008680555555555556,0,0,0.008680555555555556,33.32465277777778,0)" xlink:href="#be"/><use transform="matrix(0.008680555555555556,0,0,0.008680555555555556,44.296875,0)" xlink:href="#cy"/><use transform="matrix(0.008680555555555556,0,0,0.008680555555555556,54.288194444444436,0)" xlink:href="#cz"/></g><g id="ac"><use transform="matrix(0.008680555555555556,0,0,0.008680555555555556,0,0)" xlink:href="#cx"/><use transform="matrix(0.008680555555555556,0,0,0.008680555555555556,6.40625,0)" xlink:href="#aT"/><use transform="matrix(0.008680555555555556,0,0,0.008680555555555556,10.711805555555555,0)" xlink:href="#aR"/><use transform="matrix(0.008680555555555556,0,0,0.008680555555555556,15.017361111111109,0)" xlink:href="#aU"/><use transform="matrix(0.008680555555555556,0,0,0.008680555555555556,24.661458333333336,0)" xlink:href="#aO"/><use transform="matrix(0.008680555555555556,0,0,0.008680555555555556,34.765625,0)" xlink:href="#cz"/></g><path fill="#3a414a" d="M158 0v-1118h175l1 205c55-151 181-225 313-225 147 0 245 90 285 228 53-141 190-228 352-228 194 0 352 125 352 384V0h-181v-749c0-161-105-225-225-225-151 0-243 103-243 244V0H807v-767c0-124-93-207-219-207-131 0-250 92-250 270V0H158" id="cA"/><g id="ad"><use transform="matrix(0.008680555555555556,0,0,0.008680555555555556,0,0)" xlink:href="#cx"/><use transform="matrix(0.008680555555555556,0,0,0.008680555555555556,6.40625,0)" xlink:href="#cA"/><use transform="matrix(0.008680555555555556,0,0,0.008680555555555556,21.979166666666668,0)" xlink:href="#aO"/><use transform="matrix(0.008680555555555556,0,0,0.008680555555555556,32.34375,0)" xlink:href="#bf"/><use transform="matrix(0.008680555555555556,0,0,0.008680555555555556,38.15972222222222,0)" xlink:href="#bm"/><use transform="matrix(0.008680555555555556,0,0,0.008680555555555556,45.130208333333336,0)" xlink:href="#aR"/><use transform="matrix(0.008680555555555556,0,0,0.008680555555555556,49.43576388888889,0)" xlink:href="#aV"/><use transform="matrix(0.008680555555555556,0,0,0.008680555555555556,59.59201388888889,0)" xlink:href="#ba"/></g><path fill="#3a414a" d="M601 0v-560L49-1490h357l252 464c38 68 67 130 97 208 96-243 225-446 337-672h356L905-560V0H601" id="cB"/><use transform="matrix(0.010850694444444444,0,0,0.010850694444444444,0,0)" xlink:href="#cB" id="ae"/><path fill="#fff" d="M786 20C389 20 94-260 94-744c0-487 299-766 692-766 339 0 597 194 641 529h-309c-28-162-156-258-326-258-233 0-388 179-388 495 0 323 157 493 387 493 170 0 298-97 328-259h309c-34 277-266 530-642 530" id="cC"/><use transform="matrix(0.010850694444444444,0,0,0.010850694444444444,0,0)" xlink:href="#cC" id="af"/><g id="ag"><use transform="matrix(0.010850694444444444,0,0,0.010850694444444444,0,0)" xlink:href="#by"/><use transform="matrix(0.010850694444444444,0,0,0.010850694444444444,8.778211805555555,0)" xlink:href="#bp"/></g><g id="ah"><use transform="matrix(0.008680555555555556,0,0,0.008680555555555556,0,0)" xlink:href="#az"/><use transform="matrix(0.008680555555555556,0,0,0.008680555555555556,10.477430555555555,0)" xlink:href="#aI"/><use transform="matrix(0.008680555555555556,0,0,0.008680555555555556,21.067708333333336,0)" xlink:href="#aN"/><use transform="matrix(0.008680555555555556,0,0,0.008680555555555556,25.88541666666667,0)" xlink:href="#aI"/><use transform="matrix(0.008680555555555556,0,0,0.008680555555555556,36.47569444444444,0)" xlink:href="#bZ"/><use transform="matrix(0.008680555555555556,0,0,0.008680555555555556,52.699652777777786,0)" xlink:href="#aI"/><use transform="matrix(0.008680555555555556,0,0,0.008680555555555556,63.289930555555564,0)" xlink:href="#aL"/><use transform="matrix(0.008680555555555556,0,0,0.008680555555555556,69.80034722222223,0)" xlink:href="#aM"/><use transform="matrix(0.008680555555555556,0,0,0.008680555555555556,77.31770833333331,0)" xlink:href="#ca"/></g><g id="ai"><use transform="matrix(0.008680555555555556,0,0,0.008680555555555556,0,0)" xlink:href="#cw"/><use transform="matrix(0.008680555555555556,0,0,0.008680555555555556,11.206597222222223,0)" xlink:href="#bY"/><use transform="matrix(0.008680555555555556,0,0,0.008680555555555556,21.52777777777778,0)" xlink:href="#aL"/><use transform="matrix(0.008680555555555556,0,0,0.008680555555555556,28.125000000000004,0)" xlink:href="#bY"/></g><g id="aj"><use transform="matrix(0.008680555555555556,0,0,0.008680555555555556,0,0)" xlink:href="#bg"/><use transform="matrix(0.008680555555555556,0,0,0.008680555555555556,11.380208333333334,0)" xlink:href="#bY"/><use transform="matrix(0.008680555555555556,0,0,0.008680555555555556,21.70138888888889,0)" xlink:href="#aL"/><use transform="matrix(0.008680555555555556,0,0,0.008680555555555556,28.255208333333336,0)" xlink:href="#cr"/></g><g id="ak"><use transform="matrix(0.008680555555555556,0,0,0.008680555555555556,0,0)" xlink:href="#cl"/><use transform="matrix(0.008680555555555556,0,0,0.008680555555555556,11.475694444444445,0)" xlink:href="#co"/><use transform="matrix(0.008680555555555556,0,0,0.008680555555555556,21.98784722222222,0)" xlink:href="#bm"/><use transform="matrix(0.008680555555555556,0,0,0.008680555555555556,28.385416666666664,0)" xlink:href="#aO"/><use transform="matrix(0.008680555555555556,0,0,0.008680555555555556,38.92361111111111,0)" xlink:href="#cn"/><use transform="matrix(0.008680555555555556,0,0,0.008680555555555556,48.90625,0)" xlink:href="#be"/><use transform="matrix(0.008680555555555556,0,0,0.008680555555555556,59.79166666666667,0)" xlink:href="#aS"/><use transform="matrix(0.008680555555555556,0,0,0.008680555555555556,67.96875,0)" xlink:href="#aZ"/><use transform="matrix(0.008680555555555556,0,0,0.008680555555555556,78.85416666666667,0)" xlink:href="#aO"/><use transform="matrix(0.008680555555555556,0,0,0.008680555555555556,89.21875,0)" xlink:href="#bm"/><use transform="matrix(0.008680555555555556,0,0,0.008680555555555556,95.20833333333333,0)" xlink:href="#aS"/><use transform="matrix(0.008680555555555556,0,0,0.008680555555555556,103.38541666666666,0)" xlink:href="#aV"/><use transform="matrix(0.008680555555555556,0,0,0.008680555555555556,113.54166666666666,0)" xlink:href="#aW"/><use transform="matrix(0.008680555555555556,0,0,0.008680555555555556,124.20138888888887,0)" xlink:href="#bm"/><use transform="matrix(0.008680555555555556,0,0,0.008680555555555556,130.59895833333334,0)" xlink:href="#aO"/><use transform="matrix(0.008680555555555556,0,0,0.008680555555555556,140.96354166666669,0)" xlink:href="#aY"/></g><g id="al"><use transform="matrix(0.008680555555555556,0,0,0.008680555555555556,0,0)" xlink:href="#ba"/><use transform="matrix(0.008680555555555556,0,0,0.008680555555555556,9.383680555555555,0)" xlink:href="#co"/><use transform="matrix(0.008680555555555556,0,0,0.008680555555555556,19.895833333333336,0)" xlink:href="#cn"/><use transform="matrix(0.008680555555555556,0,0,0.008680555555555556,29.878472222222225,0)" xlink:href="#bm"/><use transform="matrix(0.008680555555555556,0,0,0.008680555555555556,36.27604166666667,0)" xlink:href="#aO"/></g><g id="am"><use transform="matrix(0.008680555555555556,0,0,0.008680555555555556,0,0)" xlink:href="#aP"/><use transform="matrix(0.008680555555555556,0,0,0.008680555555555556,10.503472222222223,0)" xlink:href="#aW"/><use transform="matrix(0.008680555555555556,0,0,0.008680555555555556,21.163194444444446,0)" xlink:href="#bf"/><use transform="matrix(0.008680555555555556,0,0,0.008680555555555556,26.979166666666668,0)" xlink:href="#aR"/><use transform="matrix(0.008680555555555556,0,0,0.008680555555555556,31.28472222222222,0)" xlink:href="#aP"/><use transform="matrix(0.008680555555555556,0,0,0.008680555555555556,41.78819444444444,0)" xlink:href="#aQ"/></g><g id="an"><use transform="matrix(0.008680555555555556,0,0,0.008680555555555556,0,0)" xlink:href="#ck"/><use transform="matrix(0.008680555555555556,0,0,0.008680555555555556,13.064236111111112,0)" xlink:href="#cl"/><use transform="matrix(0.008680555555555556,0,0,0.008680555555555556,23.02951388888889,0)" xlink:href="#cj"/><use transform="matrix(0.008680555555555556,0,0,0.008680555555555556,35.295138888888886,0)" xlink:href="#cm"/><use transform="matrix(0.008680555555555556,0,0,0.008680555555555556,45.842013888888886,0)" xlink:href="#aS"/><use transform="matrix(0.008680555555555556,0,0,0.008680555555555556,54.01909722222222,0)" xlink:href="#bc"/><use transform="matrix(0.008680555555555556,0,0,0.008680555555555556,65.078125,0)" xlink:href="#cn"/><use transform="matrix(0.008680555555555556,0,0,0.008680555555555556,75.06076388888889,0)" xlink:href="#ba"/><use transform="matrix(0.008680555555555556,0,0,0.008680555555555556,84.44444444444444,0)" xlink:href="#aO"/><use transform="matrix(0.008680555555555556,0,0,0.008680555555555556,94.80902777777777,0)" xlink:href="#be"/></g><g id="ap"><use transform="matrix(0.008680555555555556,0,0,0.008680555555555556,0,0)" xlink:href="#aJ"/><use transform="matrix(0.008680555555555556,0,0,0.008680555555555556,13.151041666666668,0)" xlink:href="#aK"/><use transform="matrix(0.008680555555555556,0,0,0.008680555555555556,24.053819444444446,0)" xlink:href="#aF"/><use transform="matrix(0.008680555555555556,0,0,0.008680555555555556,35.12152777777778,0)" xlink:href="#aL"/><use transform="matrix(0.008680555555555556,0,0,0.008680555555555556,41.63194444444444,0)" xlink:href="#aM"/><use transform="matrix(0.008680555555555556,0,0,0.008680555555555556,48.4375,0)" xlink:href="#aK"/><use transform="matrix(0.008680555555555556,0,0,0.008680555555555556,59.34027777777778,0)" xlink:href="#aN"/></g><g id="aq"><use transform="matrix(0.008680555555555556,0,0,0.008680555555555556,0,0)" xlink:href="#aA"/><use transform="matrix(0.008680555555555556,0,0,0.008680555555555556,13.272569444444445,0)" xlink:href="#aB"/><use transform="matrix(0.008680555555555556,0,0,0.008680555555555556,24.791666666666668,0)" xlink:href="#bX"/></g><g id="ar"><use transform="matrix(0.008680555555555556,0,0,0.008680555555555556,0,0)" xlink:href="#cm"/><use transform="matrix(0.008680555555555556,0,0,0.008680555555555556,11.354166666666668,0)" xlink:href="#aR"/><use transform="matrix(0.008680555555555556,0,0,0.008680555555555556,15.659722222222223,0)" xlink:href="#aZ"/><use transform="matrix(0.008680555555555556,0,0,0.008680555555555556,26.545138888888893,0)" xlink:href="#aO"/><use transform="matrix(0.008680555555555556,0,0,0.008680555555555556,36.90972222222223,0)" xlink:href="#aT"/><use transform="matrix(0.008680555555555556,0,0,0.008680555555555556,41.215277777777786,0)" xlink:href="#aR"/><use transform="matrix(0.008680555555555556,0,0,0.008680555555555556,45.52083333333334,0)" xlink:href="#aP"/><use transform="matrix(0.008680555555555556,0,0,0.008680555555555556,56.024305555555564,0)" xlink:href="#aO"/></g><g id="as"><use transform="matrix(0.008680555555555556,0,0,0.008680555555555556,0,0)" xlink:href="#aT"/><use transform="matrix(0.008680555555555556,0,0,0.008680555555555556,4.305555555555555,0)" xlink:href="#aR"/><use transform="matrix(0.008680555555555556,0,0,0.008680555555555556,8.61111111111111,0)" xlink:href="#aX"/><use transform="matrix(0.008680555555555556,0,0,0.008680555555555556,14.67013888888889,0)" xlink:href="#aO"/><use transform="matrix(0.008680555555555556,0,0,0.008680555555555556,25.034722222222225,0)" xlink:href="#aV"/><use transform="matrix(0.008680555555555556,0,0,0.008680555555555556,34.84375,0)" xlink:href="#cy"/><use transform="matrix(0.008680555555555556,0,0,0.008680555555555556,44.48784722222222,0)" xlink:href="#aV"/><use transform="matrix(0.008680555555555556,0,0,0.008680555555555556,54.64409722222222,0)" xlink:href="#aT"/><use transform="matrix(0.008680555555555556,0,0,0.008680555555555556,58.94965277777778,0)" xlink:href="#aO"/></g><g id="at"><use transform="matrix(0.008680555555555556,0,0,0.008680555555555556,0,0)" xlink:href="#cA"/><use transform="matrix(0.008680555555555556,0,0,0.008680555555555556,15.572916666666668,0)" xlink:href="#aQ"/><use transform="matrix(0.008680555555555556,0,0,0.008680555555555556,26.475694444444446,0)" xlink:href="#cA"/><use transform="matrix(0.008680555555555556,0,0,0.008680555555555556,42.048611111111114,0)" xlink:href="#bf"/><use transform="matrix(0.008680555555555556,0,0,0.008680555555555556,47.864583333333336,0)" xlink:href="#aY"/></g><g id="au"><use transform="matrix(0.008680555555555556,0,0,0.008680555555555556,0,0)" xlink:href="#aT"/><use transform="matrix(0.008680555555555556,0,0,0.008680555555555556,4.305555555555555,0)" xlink:href="#aR"/><use transform="matrix(0.008680555555555556,0,0,0.008680555555555556,8.61111111111111,0)" xlink:href="#aU"/><use transform="matrix(0.008680555555555556,0,0,0.008680555555555556,18.255208333333336,0)" xlink:href="#aO"/></g><g id="av"><use transform="matrix(0.008680555555555556,0,0,0.008680555555555556,0,0)" xlink:href="#bm"/><use transform="matrix(0.008680555555555556,0,0,0.008680555555555556,6.397569444444445,0)" xlink:href="#aO"/><use transform="matrix(0.008680555555555556,0,0,0.008680555555555556,16.76215277777778,0)" xlink:href="#aV"/><use transform="matrix(0.008680555555555556,0,0,0.008680555555555556,26.91840277777778,0)" xlink:href="#aW"/><use transform="matrix(0.008680555555555556,0,0,0.008680555555555556,37.578125,0)" xlink:href="#aP"/><use transform="matrix(0.008680555555555556,0,0,0.008680555555555556,48.08159722222222,0)" xlink:href="#aX"/><use transform="matrix(0.008680555555555556,0,0,0.008680555555555556,54.661458333333336,0)" xlink:href="#aR"/><use transform="matrix(0.008680555555555556,0,0,0.008680555555555556,58.96701388888889,0)" xlink:href="#aQ"/></g><g id="aw"><use transform="matrix(0.008680555555555556,0,0,0.008680555555555556,0,0)" xlink:href="#ba"/><use transform="matrix(0.008680555555555556,0,0,0.008680555555555556,9.383680555555555,0)" xlink:href="#bd"/><use transform="matrix(0.008680555555555556,0,0,0.008680555555555556,19.895833333333336,0)" xlink:href="#aZ"/><use transform="matrix(0.008680555555555556,0,0,0.008680555555555556,30.781250000000004,0)" xlink:href="#aZ"/><use transform="matrix(0.008680555555555556,0,0,0.008680555555555556,41.66666666666667,0)" xlink:href="#aW"/><use transform="matrix(0.008680555555555556,0,0,0.008680555555555556,52.32638888888889,0)" xlink:href="#bm"/><use transform="matrix(0.008680555555555556,0,0,0.008680555555555556,59.29687500000001,0)" xlink:href="#bf"/></g><filter id="ao" filterUnits="objectBoundingBox" x="-.02" y="-.05" width="1.05" height="1.27"><feOffset result="offOut" in="SourceAlpha" dy="6"/><feGaussianBlur result="blurOut" in="offOut" stdDeviation="5"/><feColorMatrix result="colorOut" in="blurOut" values="0 0 0 0 0 0 0 0 0 0 0 0 0 0 0 0 0 0 0.5019607843137255 0"/><feBlend in="SourceGraphic" in2="colorOut"/></filter><path fill="#333" d="M789 20C394 20 94-260 94-744c0-487 300-766 695-766s695 279 695 766c0 485-300 764-695 764zm0-271c231 0 385-174 385-493 0-321-154-495-385-495s-385 175-385 495c0 319 154 493 385 493" id="cD"/><path fill="#333" d="M128 418v-1536h295v188h14c41-89 129-202 319-202 248 0 453 193 453 575 0 372-197 576-455 576-183 0-275-108-317-198h-9v597H128zm534-640c156 0 240-139 240-336 0-196-83-334-240-334-154 0-241 131-241 334 0 202 88 336 241 336" id="cE"/><path fill="#333" d="M49 0l509-1490h400L1480 0h-339l-115-346H497L386 0H49zm524-585h374c-75-213-124-402-192-666-66 268-110 453-182 666" id="cF"/><path fill="#333" d="M135 0v-1490h468l242 684c30 94 76 293 111 455 34-161 80-360 110-455l238-684h470V0h-307c0-447-3-765 11-1227-122 503-246 788-395 1227H826C676-435 552-717 427-1215c15 453 11 775 11 1215H135" id="cG"/><path fill="#333" d="M135 0v-1490h581c339 0 533 210 533 503 0 295-197 500-540 500H440V0H135zm305-733h220c186 0 274-104 274-254s-88-251-275-251H440v505" id="cH"/><path fill="#333" d="M390-458c-5-262 65-345 192-421 92-55 159-122 159-219 0-103-81-170-182-170-97 0-187 63-192 185H79c4-288 220-427 481-427 287 0 489 150 489 402 0 170-86 277-223 359-123 72-173 130-168 291H390zM525 19c-105 0-178-69-178-169 0-101 73-170 178-170 104 0 177 69 177 170 0 100-73 169-177 169" id="cI"/><g id="ax"><use transform="matrix(0.008680555555555556,0,0,0.008680555555555556,0,0)" xlink:href="#cD"/><use transform="matrix(0.008680555555555556,0,0,0.008680555555555556,13.697916666666668,0)" xlink:href="#cE"/><use transform="matrix(0.008680555555555556,0,0,0.008680555555555556,24.305555555555557,0)" xlink:href="#cF"/><use transform="matrix(0.008680555555555556,0,0,0.008680555555555556,37.578125,0)" xlink:href="#cG"/><use transform="matrix(0.008680555555555556,0,0,0.008680555555555556,54.140625,0)" xlink:href="#cH"/><use transform="matrix(0.008680555555555556,0,0,0.008680555555555556,65.65972222222223,0)" xlink:href="#cI"/></g></defs></g></svg>