<svg xmlns="http://www.w3.org/2000/svg" width="1560" height="640" viewBox="0 0 1560 640" font-family="Inter, 'Helvetica Neue', Arial, sans-serif"><rect width="1560" height="640" fill="#ffffff"/><defs><marker id="ah-pdata" markerWidth="8" markerHeight="8" refX="6.5" refY="4" orient="auto"><path d="M0,1 L7,4 L0,7 z" fill="#4f7a8a"/></marker><marker id="ah-ctrl" markerWidth="8" markerHeight="8" refX="6.5" refY="4" orient="auto"><path d="M0,1 L7,4 L0,7 z" fill="#52606d"/></marker></defs><rect x="60" y="58" width="1440" height="2" fill="#4f7a8a"/><text x="60" y="42" font-size="34" font-weight="600" fill="#1f2933">Two ways to isolate three tenants (dedicated ports)</text><text x="1500" y="42" font-size="19" font-family="'JetBrains Mono', Menlo, Consolas, monospace" fill="#52606d" text-anchor="end">core ⊃ pipeline group ⊃ pipeline</text><text x="60" y="92" font-size="17" fill="#52606d">A pipeline group is replicated onto the cores in its core_allocation. The two organizations differ only in that allocation.</text><text x="60" y="134" font-size="21" font-weight="700" fill="#1f2933">A core each</text><text x="60" y="156" font-size="14" fill="#52606d">one group · one pipeline · replicated on 3 cores (space isolation)</text><rect x="120" y="180" width="630.0" height="122" rx="9" fill="#f4f6f8" stroke="#52606d" stroke-width="1.6"/><text x="136" y="202.0" font-size="14" font-weight="700" fill="#1f2933">core 0</text><text x="736.0" y="202.0" text-anchor="end" font-size="12" font-style="italic" fill="#52606d">1 thread</text><rect x="134" y="208" width="602.0" height="82" rx="7" fill="#fcfcfd" stroke="#9aa5b1" stroke-width="1.3" stroke-dasharray="5,3"/><text x="146" y="225.0" font-size="12" font-weight="700" fill="#52606d">group · G</text><rect x="72.0" y="248.0" width="16" height="16" rx="2" fill="white" stroke="#52606d" stroke-width="1.6"/><line x1="90.0" y1="256.0" x2="148.0" y2="256.0" stroke="#4f7a8a" stroke-width="2.6" marker-end="url(#ah-pdata)"/><text x="80.0" y="242.0" text-anchor="middle" font-size="12" font-family="'JetBrains Mono', Menlo, Consolas, monospace" fill="#52606d">port 0</text><rect x="148" y="234" width="574.0" height="44" rx="7" fill="white" stroke="#52606d" stroke-width="1.6"/><rect x="155.0" y="246.0" width="38" height="20" rx="6" fill="#c2902f"/><text x="174.0" y="260.0" text-anchor="middle" font-size="12" font-family="'JetBrains Mono', Menlo, Consolas, monospace" fill="white">T1</text><text x="200" y="254.0" font-size="14" font-weight="700" fill="#1f2933">pipe</text><line x1="211.0" y1="264" x2="364.0" y2="264" stroke="#4f7a8a" stroke-width="2" marker-end="url(#ah-pdata)"/><line x1="375.0" y1="264" x2="528.0" y2="264" stroke="#4f7a8a" stroke-width="2" marker-end="url(#ah-pdata)"/><line x1="539.0" y1="264" x2="692.0" y2="264" stroke="#4f7a8a" stroke-width="2" marker-end="url(#ah-pdata)"/><circle cx="206.0" cy="264" r="4.5" fill="#4f7a8a"/><circle cx="370.0" cy="264" r="3.5" fill="#4f7a8a"/><circle cx="534.0" cy="264" r="3.5" fill="#4f7a8a"/><circle cx="698.0" cy="264" r="4.5" fill="#4f7a8a"/><rect x="120" y="322" width="630.0" height="122" rx="9" fill="#f4f6f8" stroke="#52606d" stroke-width="1.6"/><text x="136" y="344.0" font-size="14" font-weight="700" fill="#1f2933">core 1</text><text x="736.0" y="344.0" text-anchor="end" font-size="12" font-style="italic" fill="#52606d">1 thread</text><rect x="134" y="350" width="602.0" height="82" rx="7" fill="#fcfcfd" stroke="#9aa5b1" stroke-width="1.3" stroke-dasharray="5,3"/><text x="146" y="367.0" font-size="12" font-weight="700" fill="#52606d">group · G</text><rect x="72.0" y="390.0" width="16" height="16" rx="2" fill="white" stroke="#52606d" stroke-width="1.6"/><line x1="90.0" y1="398.0" x2="148.0" y2="398.0" stroke="#4f7a8a" stroke-width="2.6" marker-end="url(#ah-pdata)"/><text x="80.0" y="384.0" text-anchor="middle" font-size="12" font-family="'JetBrains Mono', Menlo, Consolas, monospace" fill="#52606d">port 1</text><rect x="148" y="376" width="574.0" height="44" rx="7" fill="white" stroke="#52606d" stroke-width="1.6"/><rect x="155.0" y="388.0" width="38" height="20" rx="6" fill="#b0487e"/><text x="174.0" y="402.0" text-anchor="middle" font-size="12" font-family="'JetBrains Mono', Menlo, Consolas, monospace" fill="white">T2</text><text x="200" y="396.0" font-size="14" font-weight="700" fill="#1f2933">pipe</text><line x1="211.0" y1="406" x2="364.0" y2="406" stroke="#4f7a8a" stroke-width="2" marker-end="url(#ah-pdata)"/><line x1="375.0" y1="406" x2="528.0" y2="406" stroke="#4f7a8a" stroke-width="2" marker-end="url(#ah-pdata)"/><line x1="539.0" y1="406" x2="692.0" y2="406" stroke="#4f7a8a" stroke-width="2" marker-end="url(#ah-pdata)"/><circle cx="206.0" cy="406" r="4.5" fill="#4f7a8a"/><circle cx="370.0" cy="406" r="3.5" fill="#4f7a8a"/><circle cx="534.0" cy="406" r="3.5" fill="#4f7a8a"/><circle cx="698.0" cy="406" r="4.5" fill="#4f7a8a"/><rect x="120" y="464" width="630.0" height="122" rx="9" fill="#f4f6f8" stroke="#52606d" stroke-width="1.6"/><text x="136" y="486.0" font-size="14" font-weight="700" fill="#1f2933">core 2</text><text x="736.0" y="486.0" text-anchor="end" font-size="12" font-style="italic" fill="#52606d">1 thread</text><rect x="134" y="492" width="602.0" height="82" rx="7" fill="#fcfcfd" stroke="#9aa5b1" stroke-width="1.3" stroke-dasharray="5,3"/><text x="146" y="509.0" font-size="12" font-weight="700" fill="#52606d">group · G</text><rect x="72.0" y="532.0" width="16" height="16" rx="2" fill="white" stroke="#52606d" stroke-width="1.6"/><line x1="90.0" y1="540.0" x2="148.0" y2="540.0" stroke="#4f7a8a" stroke-width="2.6" marker-end="url(#ah-pdata)"/><text x="80.0" y="526.0" text-anchor="middle" font-size="12" font-family="'JetBrains Mono', Menlo, Consolas, monospace" fill="#52606d">port 2</text><rect x="148" y="518" width="574.0" height="44" rx="7" fill="white" stroke="#52606d" stroke-width="1.6"/><rect x="155.0" y="530.0" width="38" height="20" rx="6" fill="#46688f"/><text x="174.0" y="544.0" text-anchor="middle" font-size="12" font-family="'JetBrains Mono', Menlo, Consolas, monospace" fill="white">T3</text><text x="200" y="538.0" font-size="14" font-weight="700" fill="#1f2933">pipe</text><line x1="211.0" y1="548" x2="364.0" y2="548" stroke="#4f7a8a" stroke-width="2" marker-end="url(#ah-pdata)"/><line x1="375.0" y1="548" x2="528.0" y2="548" stroke="#4f7a8a" stroke-width="2" marker-end="url(#ah-pdata)"/><line x1="539.0" y1="548" x2="692.0" y2="548" stroke="#4f7a8a" stroke-width="2" marker-end="url(#ah-pdata)"/><circle cx="206.0" cy="548" r="4.5" fill="#4f7a8a"/><circle cx="370.0" cy="548" r="3.5" fill="#4f7a8a"/><circle cx="534.0" cy="548" r="3.5" fill="#4f7a8a"/><circle cx="698.0" cy="548" r="4.5" fill="#4f7a8a"/><text x="800.0" y="134" font-size="21" font-weight="700" fill="#1f2933">Sharing one core</text><text x="800.0" y="156" font-size="14" fill="#52606d">one group · three pipelines · one core (thread isolation, shared CPU)</text><rect x="860.0" y="180" width="630.0" height="234" rx="9" fill="#faf6ee" stroke="#c08a2e" stroke-width="1.6"/><text x="876.0" y="202.0" font-size="14" font-weight="700" fill="#1f2933">core 0</text><text x="1476.0" y="202.0" text-anchor="end" font-size="12" font-style="italic" fill="#c08a2e">3 threads</text><rect x="874.0" y="208" width="602.0" height="194" rx="7" fill="#fcfcfd" stroke="#9aa5b1" stroke-width="1.3" stroke-dasharray="5,3"/><text x="886.0" y="225.0" font-size="12" font-weight="700" fill="#52606d">group · G</text><rect x="812.0" y="248.0" width="16" height="16" rx="2" fill="white" stroke="#52606d" stroke-width="1.6"/><line x1="830.0" y1="256.0" x2="888.0" y2="256.0" stroke="#4f7a8a" stroke-width="2.6" marker-end="url(#ah-pdata)"/><text x="820.0" y="242.0" text-anchor="middle" font-size="12" font-family="'JetBrains Mono', Menlo, Consolas, monospace" fill="#52606d">port 0</text><rect x="888.0" y="234" width="574.0" height="44" rx="7" fill="white" stroke="#52606d" stroke-width="1.6"/><rect x="895.0" y="246.0" width="38" height="20" rx="6" fill="#c2902f"/><text x="914.0" y="260.0" text-anchor="middle" font-size="12" font-family="'JetBrains Mono', Menlo, Consolas, monospace" fill="white">T1</text><text x="940.0" y="254.0" font-size="14" font-weight="700" fill="#1f2933">pipe-t1</text><line x1="951.0" y1="264" x2="1104.0" y2="264" stroke="#4f7a8a" stroke-width="2" marker-end="url(#ah-pdata)"/><line x1="1115.0" y1="264" x2="1268.0" y2="264" stroke="#4f7a8a" stroke-width="2" marker-end="url(#ah-pdata)"/><line x1="1279.0" y1="264" x2="1432.0" y2="264" stroke="#4f7a8a" stroke-width="2" marker-end="url(#ah-pdata)"/><circle cx="946.0" cy="264" r="4.5" fill="#4f7a8a"/><circle cx="1110.0" cy="264" r="3.5" fill="#4f7a8a"/><circle cx="1274.0" cy="264" r="3.5" fill="#4f7a8a"/><circle cx="1438.0" cy="264" r="4.5" fill="#4f7a8a"/><rect x="812.0" y="304.0" width="16" height="16" rx="2" fill="white" stroke="#52606d" stroke-width="1.6"/><line x1="830.0" y1="312.0" x2="888.0" y2="312.0" stroke="#4f7a8a" stroke-width="2.6" marker-end="url(#ah-pdata)"/><text x="820.0" y="298.0" text-anchor="middle" font-size="12" font-family="'JetBrains Mono', Menlo, Consolas, monospace" fill="#52606d">port 1</text><rect x="888.0" y="290" width="574.0" height="44" rx="7" fill="white" stroke="#52606d" stroke-width="1.6"/><rect x="895.0" y="302.0" width="38" height="20" rx="6" fill="#b0487e"/><text x="914.0" y="316.0" text-anchor="middle" font-size="12" font-family="'JetBrains Mono', Menlo, Consolas, monospace" fill="white">T2</text><text x="940.0" y="310.0" font-size="14" font-weight="700" fill="#1f2933">pipe-t2</text><line x1="951.0" y1="320" x2="1104.0" y2="320" stroke="#4f7a8a" stroke-width="2" marker-end="url(#ah-pdata)"/><line x1="1115.0" y1="320" x2="1268.0" y2="320" stroke="#4f7a8a" stroke-width="2" marker-end="url(#ah-pdata)"/><line x1="1279.0" y1="320" x2="1432.0" y2="320" stroke="#4f7a8a" stroke-width="2" marker-end="url(#ah-pdata)"/><circle cx="946.0" cy="320" r="4.5" fill="#4f7a8a"/><circle cx="1110.0" cy="320" r="3.5" fill="#4f7a8a"/><circle cx="1274.0" cy="320" r="3.5" fill="#4f7a8a"/><circle cx="1438.0" cy="320" r="4.5" fill="#4f7a8a"/><rect x="812.0" y="360.0" width="16" height="16" rx="2" fill="white" stroke="#52606d" stroke-width="1.6"/><line x1="830.0" y1="368.0" x2="888.0" y2="368.0" stroke="#4f7a8a" stroke-width="2.6" marker-end="url(#ah-pdata)"/><text x="820.0" y="354.0" text-anchor="middle" font-size="12" font-family="'JetBrains Mono', Menlo, Consolas, monospace" fill="#52606d">port 2</text><rect x="888.0" y="346" width="574.0" height="44" rx="7" fill="white" stroke="#52606d" stroke-width="1.6"/><rect x="895.0" y="358.0" width="38" height="20" rx="6" fill="#46688f"/><text x="914.0" y="372.0" text-anchor="middle" font-size="12" font-family="'JetBrains Mono', Menlo, Consolas, monospace" fill="white">T3</text><text x="940.0" y="366.0" font-size="14" font-weight="700" fill="#1f2933">pipe-t3</text><line x1="951.0" y1="376" x2="1104.0" y2="376" stroke="#4f7a8a" stroke-width="2" marker-end="url(#ah-pdata)"/><line x1="1115.0" y1="376" x2="1268.0" y2="376" stroke="#4f7a8a" stroke-width="2" marker-end="url(#ah-pdata)"/><line x1="1279.0" y1="376" x2="1432.0" y2="376" stroke="#4f7a8a" stroke-width="2" marker-end="url(#ah-pdata)"/><circle cx="946.0" cy="376" r="4.5" fill="#4f7a8a"/><circle cx="1110.0" cy="376" r="3.5" fill="#4f7a8a"/><circle cx="1274.0" cy="376" r="3.5" fill="#4f7a8a"/><circle cx="1438.0" cy="376" r="4.5" fill="#4f7a8a"/><line x1="780.0" y1="120" x2="780.0" y2="616" stroke="#d9e1ec" stroke-width="1.4"/></svg>