<?xml version="1.0" encoding="UTF-8" standalone="no"?>
<!DOCTYPE svg PUBLIC "-//W3C//DTD SVG 1.1//EN"
 "http://www.w3.org/Graphics/SVG/1.1/DTD/svg11.dtd">
<!-- Generated by graphviz version 12.2.1 (20241206.2353)
 -->
<!-- Pages: 1 -->
<svg width="279pt" height="188pt"
 viewBox="0.00 0.00 278.75 188.00" xmlns="http://www.w3.org/2000/svg" xmlns:xlink="http://www.w3.org/1999/xlink">
<g id="graph0" class="graph" transform="scale(1 1) rotate(0) translate(4 184)">
<polygon fill="white" stroke="none" points="-4,4 -4,-184 274.75,-184 274.75,4 -4,4"/>
<!-- 0 -->
<g id="node1" class="node">
<title>0</title>
<polygon fill="none" stroke="black" points="101.5,-36 0,-36 0,0 101.5,0 101.5,-36"/>
<text text-anchor="middle" x="50.75" y="-12.95" font-family="Times,serif" font-size="14.00">otap&#45;df&#45;channel</text>
</g>
<!-- 1 -->
<g id="node2" class="node">
<title>1</title>
<polygon fill="none" stroke="black" points="213.75,-36 119.75,-36 119.75,0 213.75,0 213.75,-36"/>
<text text-anchor="middle" x="166.75" y="-12.95" font-family="Times,serif" font-size="14.00">otap&#45;df&#45;config</text>
</g>
<!-- 2 -->
<g id="node3" class="node">
<title>2</title>
<polygon fill="none" stroke="black" points="156.5,-108 61,-108 61,-72 156.5,-72 156.5,-108"/>
<text text-anchor="middle" x="108.75" y="-84.95" font-family="Times,serif" font-size="14.00">otap&#45;df&#45;engine</text>
</g>
<!-- 2&#45;&gt;0 -->
<g id="edge1" class="edge">
<title>2&#45;&gt;0</title>
<path fill="none" stroke="black" d="M94.41,-71.7C87.67,-63.56 79.49,-53.69 72.05,-44.7"/>
<polygon fill="black" stroke="black" points="74.96,-42.74 65.89,-37.27 69.57,-47.2 74.96,-42.74"/>
</g>
<!-- 2&#45;&gt;1 -->
<g id="edge2" class="edge">
<title>2&#45;&gt;1</title>
<path fill="none" stroke="black" d="M123.09,-71.7C129.83,-63.56 138.01,-53.69 145.45,-44.7"/>
<polygon fill="black" stroke="black" points="147.93,-47.2 151.61,-37.27 142.54,-42.74 147.93,-47.2"/>
</g>
<!-- 3 -->
<g id="node4" class="node">
<title>3</title>
<polygon fill="none" stroke="black" points="100.12,-180 17.38,-180 17.38,-144 100.12,-144 100.12,-180"/>
<text text-anchor="middle" x="58.75" y="-156.95" font-family="Times,serif" font-size="14.00">otap&#45;df&#45;otap</text>
</g>
<!-- 3&#45;&gt;2 -->
<g id="edge3" class="edge">
<title>3&#45;&gt;2</title>
<path fill="none" stroke="black" d="M71.11,-143.7C76.8,-135.73 83.68,-126.1 89.99,-117.26"/>
<polygon fill="black" stroke="black" points="92.69,-119.51 95.65,-109.34 86.99,-115.44 92.69,-119.51"/>
</g>
<!-- 4 -->
<g id="node5" class="node">
<title>4</title>
<polygon fill="none" stroke="black" points="199,-180 118.5,-180 118.5,-144 199,-144 199,-180"/>
<text text-anchor="middle" x="158.75" y="-156.95" font-family="Times,serif" font-size="14.00">otap&#45;df&#45;otlp</text>
</g>
<!-- 4&#45;&gt;2 -->
<g id="edge4" class="edge">
<title>4&#45;&gt;2</title>
<path fill="none" stroke="black" d="M146.39,-143.7C140.7,-135.73 133.82,-126.1 127.51,-117.26"/>
<polygon fill="black" stroke="black" points="130.51,-115.44 121.85,-109.34 124.81,-119.51 130.51,-115.44"/>
</g>
<!-- 5 -->
<g id="node6" class="node">
<title>5</title>
<polygon fill="none" stroke="black" points="270.75,-180 216.75,-180 216.75,-144 270.75,-144 270.75,-180"/>
<text text-anchor="middle" x="243.75" y="-156.95" font-family="Times,serif" font-size="14.00">xtask</text>
</g>
</g>
</svg>
